<svg width="31" height="30" viewBox="0 0 31 30" fill="none" xmlns="http://www.w3.org/2000/svg">
    <path d="m3.506 21.273 2.234-4.35a4.316 4.316 0 0 0 .053-3.836L3.677 8.723C1.865 5 5.931 1.063 9.592 3.012l1.911 1.025c.274.138.483.363.592.638l6.897 15.81c.279.65.006 1.413-.624 1.738l-9.115 4.762c-3.701 1.95-7.66-1.987-5.747-5.712zM20.53 19.498 16.01 9.148c-.51-1.161.757-2.336 1.874-1.736l7.16 3.8c3.041 1.612 2.981 5.986-.103 7.599l-2.568 1.337a1.339 1.339 0 0 1-1.841-.65z" fill="#fff"/>
</svg>
