<svg width="30" height="30" viewBox="0 0 30 30" fill="none" xmlns="http://www.w3.org/2000/svg">
    <path d="m21.613 5.175-.088 4.738c-.012.65.4 1.512.925 1.9l3.1 2.35c1.988 1.5 1.663 3.337-.712 4.087L20.8 19.513c-.675.212-1.387.95-1.562 1.637l-.963 3.675c-.762 2.9-2.662 3.188-4.237.638l-2.2-3.563c-.4-.65-1.35-1.137-2.1-1.1l-4.175.213c-2.988.15-3.838-1.575-1.888-3.85l2.475-2.875c.463-.538.675-1.538.463-2.213l-1.275-4.05c-.738-2.375.587-3.687 2.95-2.912l3.687 1.212c.625.2 1.563.063 2.088-.325l3.85-2.775c2.087-1.487 3.75-.612 3.7 1.95z" fill="#fff"/>
    <path d="M26.8 25.588 23.012 21.8a.943.943 0 0 0-1.325 0 .943.943 0 0 0 0 1.325l3.788 3.788a.927.927 0 0 0 .662.275.927.927 0 0 0 .663-.275.943.943 0 0 0 0-1.325z" fill="#fff"/>
</svg>
