<svg width="32" height="33" viewBox="0 0 32 33" fill="none" xmlns="http://www.w3.org/2000/svg">
    <g filter="url(#5rprr2w1aa)" stroke="#444E72" stroke-width="1.5" stroke-linecap="round" stroke-linejoin="round">
        <path d="m23.112 5.751-.087 4.738c-.013.65.4 1.512.925 1.9l3.1 2.35c1.987 1.5 1.662 3.337-.713 4.087L22.3 20.09c-.675.212-1.388.95-1.563 1.637l-.962 3.675c-.763 2.9-2.663 3.188-4.238.638l-2.2-3.563c-.4-.65-1.35-1.137-2.1-1.1l-4.175.213c-2.987.15-3.837-1.575-1.887-3.85l2.475-2.875c.462-.538.675-1.538.462-2.213L6.85 8.614C6.112 6.239 7.437 4.926 9.8 5.7l3.687 1.213c.625.2 1.563.062 2.088-.325l3.85-2.775c2.075-1.5 3.737-.625 3.687 1.937zM28.887 28.077 25.1 24.289"/>
    </g>
    <defs>
        <filter id="5rprr2w1aa" x="-1.5" y=".576" width="33" height="34" filterUnits="userSpaceOnUse" color-interpolation-filters="sRGB">
            <feFlood flood-opacity="0" result="BackgroundImageFix"/>
            <feColorMatrix in="SourceAlpha" values="0 0 0 0 0 0 0 0 0 0 0 0 0 0 0 0 0 0 127 0" result="hardAlpha"/>
            <feOffset dx="-2" dy="3"/>
            <feGaussianBlur stdDeviation=".5"/>
            <feColorMatrix values="0 0 0 0 0 0 0 0 0 0 0 0 0 0 0 0 0 0 0.1 0"/>
            <feBlend in2="BackgroundImageFix" result="effect1_dropShadow_9506_14373"/>
            <feBlend in="SourceGraphic" in2="effect1_dropShadow_9506_14373" result="shape"/>
        </filter>
    </defs>
</svg>
