<svg width="30" height="30" viewBox="0 0 30 30" fill="none" xmlns="http://www.w3.org/2000/svg">
    <g filter="url(#hf372f2ndb)" stroke="#fff" stroke-width="1.5" stroke-linecap="round" stroke-linejoin="round" clip-path="url(#gsbzm95j7a)">
        <path d="m21.986 4.171-.088 4.738c-.012.65.4 1.512.925 1.9l3.1 2.35c1.988 1.5 1.663 3.337-.712 4.087l-4.038 1.263c-.675.212-1.387.95-1.562 1.637l-.963 3.675c-.762 2.9-2.662 3.188-4.237.638l-2.2-3.563c-.4-.65-1.35-1.137-2.1-1.1l-4.175.213c-2.988.15-3.838-1.575-1.888-3.85l2.475-2.875c.463-.538.675-1.538.463-2.213L5.723 7.034c-.737-2.375.588-3.688 2.95-2.913l3.688 1.213c.625.2 1.562.062 2.087-.325l3.85-2.775c2.075-1.5 3.738-.625 3.688 1.937zM27.76 26.497l-3.787-3.788"/>
    </g>
    <defs>
        <clipPath id="gsbzm95j7a">
            <path fill="#fff" d="M0 0h30v30H0z"/>
        </clipPath>
        <filter id="hf372f2ndb" x="-.753" y=".749" width="29.264" height="29.498" filterUnits="userSpaceOnUse" color-interpolation-filters="sRGB">
            <feFlood flood-opacity="0" result="BackgroundImageFix"/>
            <feColorMatrix in="SourceAlpha" values="0 0 0 0 0 0 0 0 0 0 0 0 0 0 0 0 0 0 127 0" result="hardAlpha"/>
            <feOffset dx="-2" dy="2"/>
            <feGaussianBlur stdDeviation=".5"/>
            <feColorMatrix values="0 0 0 0 0 0 0 0 0 0 0 0 0 0 0 0 0 0 0.1 0"/>
            <feBlend in2="BackgroundImageFix" result="effect1_dropShadow_10124_19732"/>
            <feBlend in="SourceGraphic" in2="effect1_dropShadow_10124_19732" result="shape"/>
        </filter>
    </defs>
</svg>
