<svg width="30" height="30" viewBox="0 0 30 30" fill="none" xmlns="http://www.w3.org/2000/svg">
    <path d="M26.75 19.813h-7.5a.944.944 0 0 1-.938-.938c0-.512.425-.938.938-.938h7.5c.512 0 .938.425.938.938a.944.944 0 0 1-.938.938zM26.75 24.813h-7.5a.944.944 0 0 1-.938-.938c0-.512.425-.938.938-.938h7.5c.512 0 .938.425.938.938a.944.944 0 0 1-.938.938zM28 10.15V4.475C28 2.713 27.2 2 25.212 2h-5.05c-1.987 0-2.787.712-2.787 2.475v5.662c0 1.775.8 2.476 2.788 2.476h5.05c1.987.012 2.787-.7 2.787-2.463zM13.625 10.15V4.475c0-1.762-.8-2.475-2.787-2.475h-5.05C3.8 2 3 2.712 3 4.475v5.662c0 1.775.8 2.476 2.787 2.476h5.05c1.988.012 2.788-.7 2.788-2.463zM13.625 24.212v-5.05c0-1.987-.8-2.787-2.787-2.787h-5.05c-1.988 0-2.788.8-2.788 2.788v5.05C3 26.2 3.8 27 5.787 27h5.05c1.988 0 2.788-.8 2.788-2.788z" fill="#292D32"/>
</svg>
