<svg width="31" height="30" viewBox="0 0 31 30" fill="none" xmlns="http://www.w3.org/2000/svg">
    <path d="M26.658 20.313h-7.5a.944.944 0 0 1-.937-.938c0-.512.425-.938.937-.938h7.5c.513 0 .938.425.938.938a.944.944 0 0 1-.938.938zM26.658 25.313h-7.5a.944.944 0 0 1-.937-.938c0-.512.425-.938.937-.938h7.5c.513 0 .938.425.938.938a.944.944 0 0 1-.938.938zM27.908 10.65V4.975c0-1.762-.8-2.475-2.787-2.475h-5.05c-1.988 0-2.788.712-2.788 2.475v5.662c0 1.775.8 2.476 2.788 2.476h5.05c1.987.012 2.787-.7 2.787-2.463zM13.533 10.65V4.975c0-1.762-.8-2.475-2.787-2.475h-5.05c-1.988 0-2.788.712-2.788 2.475v5.662c0 1.775.8 2.476 2.788 2.476h5.05c1.987.012 2.787-.7 2.787-2.463zM13.533 24.712v-5.05c0-1.987-.8-2.787-2.787-2.787h-5.05c-1.988 0-2.788.8-2.788 2.788v5.05c0 1.987.8 2.787 2.788 2.787h5.05c1.987 0 2.787-.8 2.787-2.788z" fill="#292D32"/>
</svg>
