<svg width="30" height="30" viewBox="0 0 30 30" fill="none" xmlns="http://www.w3.org/2000/svg">
    <path d="M30 15c0-8.284-6.716-15-15-15C6.716 0 0 6.716 0 15c0 7.487 5.485 13.692 12.656 14.818V19.336H8.848V15h3.808v-3.305c0-3.76 2.24-5.836 5.666-5.836 1.64 0 3.358.293 3.358.293v3.692h-1.892c-1.863 0-2.444 1.156-2.444 2.344V15h4.16l-.665 4.336h-3.495v10.482C24.514 28.692 30 22.487 30 15z" fill="#1877F2"/>
    <path d="M20.839 19.336 21.504 15h-4.16v-2.813c0-1.186.581-2.343 2.444-2.343h1.892V6.152s-1.717-.293-3.358-.293c-3.426 0-5.666 2.077-5.666 5.836V15H8.848v4.336h3.808v10.482c1.553.243 3.135.243 4.688 0V19.336h3.495z" fill="#fff"/>
</svg>
