<svg width="228" height="62" viewBox="0 0 228 62" fill="none" xmlns="http://www.w3.org/2000/svg">
    <g filter="url(#8yodgd5e5a)" fill="#fff">
        <path d="m115.978 28.353-.037.54.09.039c.062-.07.115-.147.158-.23.521-1.465 1.534-2.38 3.077-2.712 1.456-.313 3.104.33 3.969 1.558-.386.211-.777.412-1.157.637-.182.105-.346.243-.517.365l-.184-.164a2 2 0 0 0-1.868-.458 1.973 1.973 0 0 0-1.388 1.318c-.09.278-.088.494.207.646.095.05.166.154.245.233-.5.302-.995.6-1.486.906a1.126 1.126 0 0 0-.211.232c-1.507-.896-3.233-.14-3.718 1.253a.973.973 0 0 1-.361.448 1.74 1.74 0 0 0-.795 1.194c-.328.17-.654.343-.985.507-.292.145-.589.28-.884.42-.255-.832-.166-1.663.285-2.371.551-.857 1.237-1.628 1.864-2.436.006-.008.019-.01.028-.015.129-.029.256-.07.377-.124.662-.365 1.314-.747 1.977-1.11.431-.235.875-.45 1.314-.676z"/>
        <path d="M110.131 35.088c.295-.14.591-.275.884-.42.333-.165.656-.337.985-.507-.016 1.026.788 1.648 1.704 1.617 1.119-.04 2.239 0 3.359 0a1.086 1.086 0 0 1-.2.21c-.866.505-1.738 1.003-2.604 1.511-.083.049-.13.157-.195.237-.584.035-1.167.023-1.719-.199-.235-.094-.343-.01-.488.165-.968 1.167-1.956 2.32-2.928 3.484-.583.697-1.296.666-1.842.014-.815-.972-1.646-1.932-2.469-2.897.101-.045.205-.082.304-.138.486-.262.97-.527 1.455-.791l1.596 1.875a.607.607 0 0 0 .114-.082c.781-.96 1.564-1.918 2.334-2.884.06-.077.043-.247.01-.355-.085-.288-.199-.562-.3-.84z"/>
        <path d="M114.064 37.736c.065-.083.112-.188.196-.237.865-.508 1.737-1.006 2.604-1.512.075-.06.143-.131.199-.21.81 0 1.621.015 2.43-.02.298-.016.587-.1.845-.248.653-.379.934-1.295.381-2.142.673-.38 1.342-.764 2.019-1.133.193-.09.391-.168.594-.233-.151.195-.284.408-.46.577-.176.17-.202.294-.114.51a3.16 3.16 0 0 1-.156 2.822c-.642 1.168-1.666 1.804-3.011 1.824-1.843.032-3.685.005-5.527.002z"/>
        <path d="M123.332 32.004a4.78 4.78 0 0 0-.594.233c-.678.369-1.347.753-2.019 1.133a1.705 1.705 0 0 0-1.417-.57c-.196.012-.395 0-.591 0-.435.007-.726-.194-.974-.548-.247-.354-.573-.659-.864-.989.059-.086.13-.164.211-.231.491-.31.989-.607 1.486-.907.159.165.34.308.471.488.119.165.25.193.44.22.472.054.938.15 1.392.286.542.178.583.196.874-.31a2.08 2.08 0 0 0 .187-.454c.189-.66.015-1.257-.376-1.804.172-.123.333-.26.517-.366.38-.22.771-.425 1.157-.636.99 1.259 1.034 3.246.1 4.455zM100.023 27.362c.059-1.025.294-2.004.78-2.917.147-.026.313-.017.435-.082 1.011-.568 2.012-1.154 3.018-1.73 1.403-.8 2.809-1.595 4.21-2.397.09-.052.149-.156.223-.236.904.017 1.743.282 2.556.653.083.038.167.07.25.105-.059.078-.101.183-.179.23-.417.246-.839.471-1.25.722a5.04 5.04 0 0 0-.509.4c-.166-.03-.325-.06-.489-.088-1.91-.316-3.599.158-5.062 1.407-.889.76-1.447 1.73-1.81 2.825-.282.141-.566.28-.847.423-.438.226-.88.46-1.326.685z"/>
        <path d="M108.689 20c-.074.082-.134.184-.224.236-1.4.802-2.807 1.596-4.209 2.397-1.007.576-2.008 1.159-3.018 1.73-.122.068-.289.06-.435.082.561-1.271 1.47-2.253 2.595-3.053.908-.647 1.916-1.106 3.015-1.277.749-.116 1.519-.082 2.276-.115zM106.377 37.375c-.485.263-.97.529-1.455.79-.099.053-.203.094-.304.14l-1.942-2.778c.109-.057.22-.11.328-.17.464-.255.929-.513 1.392-.77l1.981 2.788zM115.977 28.353c-.439.226-.883.441-1.316.679-.663.363-1.315.741-1.977 1.11a2.004 2.004 0 0 1-.377.124c.403-.299.784-.635 1.217-.882.244-.138.382-.274.402-.54.022-.285.083-.577.066-.855-.042-.577-.126-1.154-.193-1.73.116-.04.23-.085.34-.137.476-.26.949-.528 1.422-.792.362.965.505 1.997.416 3.023zM109.564 22.11c.16-.143.33-.277.508-.399.411-.247.834-.475 1.25-.723.078-.046.12-.151.179-.229a7.074 7.074 0 0 1 2.5 1.901c-.314.209-.631.412-.942.627-.233.16-.458.33-.687.495a6.612 6.612 0 0 0-2.808-1.671zM100.023 27.363c.443-.23.886-.46 1.333-.686.281-.143.565-.282.848-.423-.27 1.064-.242 2.132-.044 3.202-.23.107-.461.21-.689.319-.383.183-.764.37-1.146.555-.232-.977-.385-1.957-.302-2.967z"/>
        <path d="M112.376 23.777c.229-.165.454-.33.687-.494.311-.213.628-.419.942-.627a6.81 6.81 0 0 1 1.556 2.668c-.473.264-.946.532-1.422.792-.11.053-.223.098-.34.137a6.736 6.736 0 0 0-1.423-2.476zM104.396 34.588l-1.392.77c-.108.059-.219.112-.328.17l-1.367-2.533c.163-.122.333-.235.509-.34.396-.21.803-.401 1.205-.6l1.373 2.533z"/>
        <path d="M103.023 32.054c-.403.2-.809.392-1.206.602a5.586 5.586 0 0 0-.509.34l-.927-2.461c-.025-.067-.039-.137-.058-.206.382-.185.763-.371 1.147-.555.228-.109.459-.212.688-.318l.865 2.598zM117.244 25.643c-.237-.146-.549-.243-.697-.452a5.755 5.755 0 0 1-.667-1.28c-.175-.461.088-.942.539-1.142.451-.2.974-.075 1.235.345.226.358.421.734.583 1.123.259.64-.254 1.339-.945 1.33l-.048.076zM126.298 29.156c.264.019.565.031.863.065.456.05.838.494.839.964 0 .507-.369.965-.876.989a6.735 6.735 0 0 1-1.363-.071c-.486-.074-.806-.577-.759-1.086.041-.448.471-.84.949-.863.103-.002.207.002.347.002zM126.176 34.533c-.05.42-.233.717-.583.897-.334.172-.701.189-1-.05a8.052 8.052 0 0 1-1.018-.952c-.3-.338-.232-.873.092-1.213.347-.364.868-.454 1.268-.156.355.27.683.572.98.902.134.147.177.379.261.572zM122.569 23.295c-.072.28-.152.738-.309 1.168-.167.455-.719.678-1.189.541-.5-.146-.784-.608-.687-1.162.061-.353.145-.703.25-1.046a.976.976 0 0 1 .439-.56.995.995 0 0 1 .708-.117c.476.086.796.492.788 1.176zM125.604 24.675c.439.026.762.24.924.635.163.394.098.761-.218 1.04a7.991 7.991 0 0 1-1.039.778c-.394.247-.96.12-1.239-.229-.305-.379-.325-.95.022-1.269.356-.31.735-.595 1.134-.85.109-.076.274-.073.416-.105zM111.43 27.24c.391 1.868-.944 3.733-2.87 4.026-1.032.157-1.951-.071-2.75-.742.055-.072.12-.136.192-.192.309-.184.631-.346.937-.534.241-.147.465-.32.697-.482.968.083 1.405-.182 1.839-1.099.434-.222.867-.446 1.303-.665.214-.105.434-.208.652-.312zM104.562 28.352c-.192-.924.067-1.753.592-2.5a3.41 3.41 0 0 1 1.668-1.262 3.45 3.45 0 0 1 2.099-.057c.44.132.833.423 1.25.642-.584.33-1.172.659-1.75 1-.07.04-.109.132-.167.2-.802-.072-1.341.294-1.684.99-.258.12-.519.237-.775.363-.414.205-.823.416-1.233.624z"/>
        <path d="M108.252 26.377c.053-.069.092-.16.166-.201.584-.338 1.167-.668 1.75-1 .712.514 1.109 1.216 1.263 2.06-.218.105-.438.207-.654.316-.436.219-.87.443-1.304.665 0-.223.034-.453-.012-.667-.139-.643-.589-.998-1.209-1.173zM104.562 28.352c.41-.209.819-.42 1.231-.625.255-.126.516-.243.774-.364-.162 1.002.182 1.634 1.066 1.956-.231.165-.456.335-.696.482-.306.188-.629.35-.938.534-.072.055-.136.12-.191.192a3.13 3.13 0 0 1-.853-.96 3.089 3.089 0 0 1-.393-1.215z"/>
    </g>
    <defs>
        <filter id="8yodgd5e5a" x="0" y="-76" width="228" height="221.699" filterUnits="userSpaceOnUse" color-interpolation-filters="sRGB">
            <feFlood flood-opacity="0" result="BackgroundImageFix"/>
            <feColorMatrix in="SourceAlpha" values="0 0 0 0 0 0 0 0 0 0 0 0 0 0 0 0 0 0 127 0" result="hardAlpha"/>
            <feOffset dy="4"/>
            <feGaussianBlur stdDeviation="50"/>
            <feComposite in2="hardAlpha" operator="out"/>
            <feColorMatrix values="0 0 0 0 0 0 0 0 0 0 0 0 0 0 0 0 0 0 0.2 0"/>
            <feBlend in2="BackgroundImageFix" result="effect1_dropShadow_5793_13132"/>
            <feBlend in="SourceGraphic" in2="effect1_dropShadow_5793_13132" result="shape"/>
            <feColorMatrix in="SourceAlpha" values="0 0 0 0 0 0 0 0 0 0 0 0 0 0 0 0 0 0 127 0" result="hardAlpha"/>
            <feOffset dx="-18" dy="11"/>
            <feGaussianBlur stdDeviation="15"/>
            <feComposite in2="hardAlpha" operator="arithmetic" k2="-1" k3="1"/>
            <feColorMatrix values="0 0 0 0 1 0 0 0 0 1 0 0 0 0 1 0 0 0 1 0"/>
            <feBlend in2="shape" result="effect2_innerShadow_5793_13132"/>
        </filter>
    </defs>
</svg>
