<svg width="30" height="30" viewBox="0 0 30 30" fill="none" xmlns="http://www.w3.org/2000/svg">
    <path d="M10.675 4.038c.224-.122.462.066.462.322v17.039c0 .223-.15.413-.352.508a2.204 2.204 0 0 0-.11.056l-2.938 1.675C5.688 24.813 4 23.838 4 21.463V9.301c0-.788.563-1.763 1.263-2.163l5.412-3.1zM18.472 7.662a.5.5 0 0 1 .278.448v16.718a.5.5 0 0 1-.717.45l-5.563-2.68a.5.5 0 0 1-.283-.45V5.356a.5.5 0 0 1 .722-.448l5.563 2.754zM27.5 8.113v12.162c0 .788-.563 1.763-1.262 2.163l-4.552 2.608a.5.5 0 0 1-.748-.434V7.84a.5.5 0 0 1 .252-.434l2.572-1.468c2.05-1.175 3.738-.2 3.738 2.175z" fill="#fff"/>
</svg>
