<svg width="22" height="22" viewBox="0 0 22 22" fill="none" xmlns="http://www.w3.org/2000/svg">
    <path d="m6.755 15.978-.008.005-2.155 1.228c-.658.378-1.144.35-1.435.181-.29-.169-.558-.578-.558-1.341V7.13c0-.178.068-.415.203-.648.135-.231.309-.41.471-.503l3.56-2.04V15.91a.22.22 0 0 1-.079.07zm.08-.071h-.001zM13.25 6.03v11.965l-3.813-1.837V4.142L13.25 6.03z" fill="#222" stroke="#222"/>
    <path d="M20.167 5.95v8.918c0 .578-.413 1.293-.926 1.586l-3.138 1.799a.5.5 0 0 1-.749-.434V5.827a.5.5 0 0 1 .252-.434l1.82-1.039c1.503-.862 2.74-.147 2.74 1.595z" fill="#222"/>
</svg>
