<svg width="30" height="30" viewBox="0 0 30 30" fill="none" xmlns="http://www.w3.org/2000/svg">
    <g filter="url(#ab558eczab)" clip-path="url(#yifnwdv0ta)">
        <path d="M5.03 15.294c.39 5.579 5.124 10.118 10.79 10.367 3.997.173 7.572-1.69 9.717-4.626.888-1.202.412-2.004-1.073-1.733-.725.13-1.473.184-2.253.152-5.297-.217-9.63-4.648-9.652-9.88a9.638 9.638 0 0 1 .812-3.955c.585-1.343-.12-1.982-1.473-1.408-4.29 1.81-7.226 6.132-6.869 11.083z" stroke="#fff" stroke-width="1.5" stroke-linecap="round" stroke-linejoin="round"/>
    </g>
    <defs>
        <clipPath id="yifnwdv0ta">
            <path fill="#fff" d="M0 0h30v30H0z"/>
        </clipPath>
        <filter id="ab558eczab" x="1.25" y="3.25" width="25.484" height="27.172" filterUnits="userSpaceOnUse" color-interpolation-filters="sRGB">
            <feFlood flood-opacity="0" result="BackgroundImageFix"/>
            <feColorMatrix in="SourceAlpha" values="0 0 0 0 0 0 0 0 0 0 0 0 0 0 0 0 0 0 127 0" result="hardAlpha"/>
            <feOffset dx="-2" dy="3"/>
            <feGaussianBlur stdDeviation=".5"/>
            <feColorMatrix values="0 0 0 0 0 0 0 0 0 0 0 0 0 0 0 0 0 0 0.1 0"/>
            <feBlend in2="BackgroundImageFix" result="effect1_dropShadow_10124_19813"/>
            <feBlend in="SourceGraphic" in2="effect1_dropShadow_10124_19813" result="shape"/>
        </filter>
    </defs>
</svg>
