<svg width="30" height="30" viewBox="0 0 30 30" fill="none" xmlns="http://www.w3.org/2000/svg">
    <path d="M25.714 19.913c-.191-.338-.729-.863-2.066-.613-.74.138-1.493.2-2.246.163-2.783-.125-5.303-1.463-7.058-3.525a10.42 10.42 0 0 1-2.52-6.725c0-1.425.262-2.8.8-4.1.525-1.263.155-1.925-.108-2.2-.274-.288-.92-.688-2.185-.138-4.885 2.15-7.907 7.275-7.548 12.763.358 5.162 3.821 9.575 8.408 11.237 1.098.4 2.257.638 3.451.688.191.012.383.025.574.025 4 0 7.75-1.975 10.116-5.338.8-1.162.585-1.9.382-2.237z" fill="#FFD130"/>
</svg>
