<svg width="30" height="30" viewBox="0 0 30 30" fill="none" xmlns="http://www.w3.org/2000/svg">
    <path d="M15.336 23.75a8.75 8.75 0 1 0 0-17.5 8.75 8.75 0 0 0 0 17.5zM15.336 28.7c-.688 0-1.25-.512-1.25-1.2v-.1c0-.688.562-1.25 1.25-1.25.687 0 1.25.563 1.25 1.25 0 .688-.563 1.3-1.25 1.3zm8.925-3.525a1.28 1.28 0 0 1-.888-.363l-.162-.162a1.245 1.245 0 0 1 0-1.762 1.245 1.245 0 0 1 1.762 0l.163.162a1.245 1.245 0 0 1-.875 2.125zm-17.85 0a1.28 1.28 0 0 1-.888-.363 1.245 1.245 0 0 1 0-1.762l.163-.163a1.245 1.245 0 0 1 1.762 0 1.245 1.245 0 0 1 0 1.763l-.162.163a1.251 1.251 0 0 1-.875.362zm21.425-8.925h-.1c-.688 0-1.25-.563-1.25-1.25 0-.688.562-1.25 1.25-1.25.687 0 1.3.563 1.3 1.25 0 .688-.513 1.25-1.2 1.25zm-24.9 0h-.1c-.688 0-1.25-.563-1.25-1.25 0-.688.562-1.25 1.25-1.25.687 0 1.3.563 1.3 1.25 0 .688-.513 1.25-1.2 1.25zm21.162-8.762a1.28 1.28 0 0 1-.887-.363 1.245 1.245 0 0 1 0-1.763l.162-.162a1.245 1.245 0 0 1 1.763 0 1.245 1.245 0 0 1 0 1.763l-.163.162a1.23 1.23 0 0 1-.875.362zm-17.525 0a1.28 1.28 0 0 1-.887-.363l-.163-.175a1.245 1.245 0 0 1 0-1.763 1.245 1.245 0 0 1 1.763 0l.162.163a1.245 1.245 0 0 1 0 1.763c-.237.25-.562.374-.875.374zM15.336 3.8c-.688 0-1.25-.512-1.25-1.2v-.1c0-.688.562-1.25 1.25-1.25.687 0 1.25.563 1.25 1.25 0 .688-.563 1.3-1.25 1.3z" fill="#FFD130"/>
</svg>
