<svg width="30" height="30" viewBox="0 0 30 30" fill="none" xmlns="http://www.w3.org/2000/svg">
    <path d="m22.237 20.932.229 1.153c.126.637-.234 1.315-.805 1.515-.57.2-1.136-.155-1.262-.792-.126-.636.234-1.315.805-1.514l1.033-.362zM16.159 20.932l.228 1.153c.127.637-.234 1.315-.804 1.515-.571.2-1.136-.155-1.263-.792-.126-.636.235-1.315.805-1.514l1.034-.362zM10.08 20.932l.228 1.153c.127.637-.234 1.315-.805 1.515-.57.2-1.135-.155-1.262-.792-.126-.636.235-1.315.805-1.514l1.034-.362zM4.266 20.932l.229 1.153c.126.637-.234 1.315-.805 1.515-.57.2-1.136-.155-1.262-.792-.126-.636.234-1.315.805-1.514l1.033-.362zM7.306 25.06l.228 1.153c.127.637-.234 1.315-.804 1.514-.571.2-1.136-.154-1.262-.791-.127-.637.234-1.315.804-1.515l1.034-.361zM12.625 25.06l.228 1.153c.127.637-.234 1.315-.805 1.514-.57.2-1.135-.154-1.262-.791-.126-.637.234-1.315.805-1.515l1.034-.361zM17.943 25.06l.229 1.153c.126.637-.235 1.315-.805 1.514-.571.2-1.136-.154-1.262-.791-.127-.637.234-1.315.805-1.515l1.033-.361z" fill="#fff"/>
    <g filter="url(#6cs2uetoaa)">
        <path fill-rule="evenodd" clip-rule="evenodd" d="M14.065 18.948H8.217a6.21 6.21 0 0 1-6.21-6.209v-.181a6.028 6.028 0 0 1 8.95-5.275A8.69 8.69 0 0 1 28 9.69v.284a8.974 8.974 0 0 1-8.974 8.974h-4.961z" fill="#fff"/>
    </g>
    <defs>
        <filter id="6cs2uetoaa" x="-15.992" y="-14" width="51.992" height="43.949" filterUnits="userSpaceOnUse" color-interpolation-filters="sRGB">
            <feFlood flood-opacity="0" result="BackgroundImageFix"/>
            <feBlend in="SourceGraphic" in2="BackgroundImageFix" result="shape"/>
            <feColorMatrix in="SourceAlpha" values="0 0 0 0 0 0 0 0 0 0 0 0 0 0 0 0 0 0 127 0" result="hardAlpha"/>
            <feOffset dx="8" dy="-15"/>
            <feGaussianBlur stdDeviation="15"/>
            <feComposite in2="hardAlpha" operator="arithmetic" k2="-1" k3="1"/>
            <feColorMatrix values="0 0 0 0 0 0 0 0 0 0 0 0 0 0 0 0 0 0 0.2 0"/>
            <feBlend in2="shape" result="effect1_innerShadow_5947_16517"/>
            <feColorMatrix in="SourceAlpha" values="0 0 0 0 0 0 0 0 0 0 0 0 0 0 0 0 0 0 127 0" result="hardAlpha"/>
            <feOffset dx="-18" dy="11"/>
            <feGaussianBlur stdDeviation="15"/>
            <feComposite in2="hardAlpha" operator="arithmetic" k2="-1" k3="1"/>
            <feColorMatrix values="0 0 0 0 1 0 0 0 0 1 0 0 0 0 1 0 0 0 1 0"/>
            <feBlend in2="effect1_innerShadow_5947_16517" result="effect2_innerShadow_5947_16517"/>
        </filter>
    </defs>
</svg>
