<svg width="30" height="30" viewBox="0 0 30 30" fill="none" xmlns="http://www.w3.org/2000/svg">
    <g filter="url(#cqka6k35ka)" fill="#fff">
        <path d="m2 11.93.118-.196a.788.788 0 0 1 .51-.348.743.743 0 0 1 .589.143c.164.129.323.267.474.414.373.374.827.579 1.346.737-.039-.076-.065-.171-.119-.224a45.773 45.773 0 0 0-.927-.818c-.376-.325-.456-.794-.188-1.187.229-.338.668-.442 1.082-.136.031.023.065.044.138.093-.022-.353.019-.67.28-.853a1.2 1.2 0 0 1 .494-.167.496.496 0 0 1 .335.054.56.56 0 0 1 .237.262c.095.2.12.437.183.682.061-.041.136-.087.206-.141.294-.223.773-.098.985.202.195.278.183.824-.065 1.069-.315.305-.657.577-.977.874a.7.7 0 0 0-.157.295c.691-.176 1.218-.616 1.713-1.103.302-.296 1.037-.266 1.218.228.112.307.07.698-.145.938-.078.088-.165.167-.264.266.082.082.159.155.232.232.283.301.321.813.084 1.132-.248.334-.676.39-1.026.134a2.05 2.05 0 0 1-.156-.127c-.52-.469-.52-.469-1.107-.085.09.29.26.437.52.438h.757c.443 0 .764.31.766.732.004.571-.268.9-.758.914-.196.004-.387 0-.61 0v.364c0 .414-.25.748-.597.801-.476.071-.759-.261-.858-.604a1.331 1.331 0 0 1-.051-.544c.072-.495-.14-.823-.477-1.12-.168.184-.344.365-.504.56a.396.396 0 0 0-.05.22c-.005.238 0 .477 0 .715a.816.816 0 0 1-.047.297.766.766 0 0 1-.15.253.697.697 0 0 1-.229.169.649.649 0 0 1-.271.06.76.76 0 0 1-.768-.743c-.006-.13 0-.26 0-.424h-.58c-.44-.006-.786-.37-.786-.827 0-.48.317-.815.778-.82.204 0 .41-.026.61.006.344.054.544-.128.702-.429-.019-.016-.035-.034-.053-.048-.399-.306-.727-.26-1.096.123-.436.453-.938.431-1.331-.283v-.371l.424-.718-.424-.715L2 11.93zM15.086 1c.406.178.594.516.595 1.013.101-.06.176-.106.252-.149.335-.184.764-.077.952.236.112.174.16.388.131.598a.853.853 0 0 1-.28.534c-.322.283-.642.566-.958.856a.374.374 0 0 0-.092.225c.475-.151.912-.347 1.27-.707.164-.158.335-.307.513-.446.337-.273.774-.2 1.06.17.218.279.175.766-.094 1.057-.074.08-.153.155-.252.256l.183.161c.33.296.397.836.148 1.188-.248.351-.705.413-1.066.129a2.84 2.84 0 0 1-.338-.302c-.18-.198-.364-.212-.578-.067-.114.07-.23.134-.35.19.172.287.371.455.705.42.274-.033.551-.019.821.042.448.111.619.444.549.963-.041.31-.365.678-.761.637-.168-.019-.34 0-.54 0-.006.117-.014.218-.016.32-.012.523-.326.855-.8.848-.43-.006-.711-.34-.716-.849a1.202 1.202 0 0 1 0-.238c.1-.47-.138-.786-.42-1.074a.19.19 0 0 0-.196 0c-.249.244-.47.495-.419.92.027.237.01.478-.052.707-.113.418-.48.616-.892.528-.318-.07-.557-.406-.56-.795v-.367h-.586a.733.733 0 0 1-.468-.158.842.842 0 0 1-.288-.431c-.095-.303.034-.701.312-.904a.562.562 0 0 1 .295-.095c.26-.019.52-.019.78 0 .34.035.518-.18.706-.47-.215-.108-.407-.22-.61-.296-.06-.022-.163.046-.23.098-.171.133-.326.293-.5.42-.35.253-.74.17-1.014-.2-.23-.31-.199-.752.079-1.056.078-.087.162-.167.244-.251-.123-.148-.265-.272-.353-.432-.21-.38-.144-.786.145-1.049.268-.245.722-.226 1.011.032.425.379.833.786 1.361.999.112.045.224.094.335.141l.065-.061a1.46 1.46 0 0 0-.19-.268c-.275-.246-.559-.48-.84-.718-.441-.373-.485-.926-.103-1.325a.682.682 0 0 1 .873-.103c.074.048.146.1.26.18-.079-.534.16-.837.527-1.057h.39zM27 13.946c-.083.141-.149.294-.253.41a.68.68 0 0 1-.49.23.675.675 0 0 1-.498-.207 2.207 2.207 0 0 1-.292-.318c-.191-.283-.44-.325-.74-.248-.052.231-.04.43.165.593.133.117.254.248.364.39.316.37.315.849 0 1.184-.315.335-.745.339-1.077-.035-.153-.173-.237-.148-.39.005-.48.481-1.092.312-1.303-.338-.09-.284 0-.52.159-.733.094-.132.204-.25.325-.353.236-.188.24-.434.196-.712-.242-.066-.445-.039-.608.191a2.573 2.573 0 0 1-.308.338c-.221.212-.47.296-.765.2-.312-.1-.46-.36-.538-.664-.065-.258.066-.482.216-.673a1.1 1.1 0 0 1 .234-.181c-.167-.272-.326-.459-.409-.678-.178-.46.175-.96.629-1.01.47-.05.719.27.976.584.16.193.321.277.571.195.036-.265.065-.516-.173-.746a2.114 2.114 0 0 1-.488-.675c-.184-.441.177-.952.618-1 .375-.043.613.16.84.447.074-.071.134-.13.19-.19.332-.347.815-.365 1.111-.04.308.338.293.831-.04 1.203-.142.158-.292.308-.432.467a.291.291 0 0 0-.085.167c.005.125.035.354.065.354.16.01.345.007.477-.076.163-.102.282-.288.421-.437.444-.474 1.042-.345 1.285.278a.31.31 0 0 0 .042.062v.371l-.402.637.402.636.005.372zM13.572 28.163c-.172-.163-.398-.294-.505-.495-.204-.388-.01-.882.36-1.066a.698.698 0 0 1 .564-.023c.184.073.335.22.42.411.086.191.1.411.039.613a.804.804 0 0 1-.365.469l-.171.093-.342-.002zM21.836 24.774c-.158.194-.319.369-.451.566-.05.07-.038.2-.048.302-.034.329-.018.674-.11.981-.109.361-.488.509-.854.42-.263-.065-.533-.424-.548-.736-.007-.13 0-.26 0-.425h-.582a.807.807 0 0 1-.785-.83.878.878 0 0 1 .237-.576.745.745 0 0 1 .54-.236 5.01 5.01 0 0 1 .706.005c.315.038.473-.156.637-.431-.203-.099-.386-.212-.586-.27-.082-.024-.204.053-.29.114-.195.142-.364.33-.57.442-.351.19-.703.065-.92-.278a.854.854 0 0 1 .092-1.036c.072-.08.157-.149.26-.243-.099-.112-.195-.217-.285-.322-.245-.283-.26-.703-.05-1.043.13-.212.604-.437.871-.244.316.228.601.507.921.728.32.22.673.399 1.01.596l.072-.082c-.036-.07-.056-.164-.11-.212-.302-.278-.613-.547-.923-.817-.357-.309-.456-.784-.223-1.14.213-.327.627-.53 1.071-.212l.158.108c.003-.386.086-.72.39-.898a.92.92 0 0 1 .486-.116c.373.017.607.387.673 1.014.238-.142.45-.334.76-.244.31.09.506.301.574.616.075.344-.05.644-.303.868-.314.278-.633.549-.945.83a.36.36 0 0 0-.088.227c.472-.16.911-.35 1.271-.708a6.33 6.33 0 0 1 .512-.446c.329-.265.827-.203 1.05.122a.898.898 0 0 1 .064.926.814.814 0 0 1-.196.246c-.061.053-.116.116-.181.181.097.1.18.182.26.268.269.294.303.758.08 1.06-.26.355-.656.446-.998.21a3.037 3.037 0 0 1-.48-.406c-.14-.147-.271-.162-.435-.065-.139.082-.283.154-.441.24.17.267.325.457.627.419.236-.019.472-.02.707-.005.44.007.789.379.781.83a.877.877 0 0 1-.237.577.744.744 0 0 1-.54.235h-.586v.337c-.004.487-.294.807-.707.837-.496.037-.782-.38-.805-.82a1.193 1.193 0 0 1 0-.264c.09-.526-.17-.867-.533-1.2zM9.547 21.59c.235-.151.35-.344.318-.637a3.302 3.302 0 0 1 0-.556c.02-.342.279-.668.56-.717.406-.07.725.074.853.43.044.15.06.308.045.465-.009.212.065.293.256.27.29-.032.555.026.723.32a.916.916 0 0 1 .041.835.73.73 0 0 1-.273.334.645.645 0 0 1-.4.105 4.31 4.31 0 0 1-.487-.005c-.273-.037-.415.133-.545.346.135.246.304.39.579.349.146-.012.293-.012.439 0 .416.007.74.313.746.702.008.585-.246.914-.73.942-.097.007-.195.009-.292.013-.007 0-.013.009-.053.034v.287c0 .486-.298.829-.728.834-.375.005-.726-.39-.736-.832-.005-.168 0-.336 0-.504 0-.38 0-.384-.317-.63-.21.141-.354.309-.32.612.014.186.014.371 0 .556a.881.881 0 0 1-.24.558.75.75 0 0 1-.524.234c-.331.01-.724-.395-.746-.778-.007-.114 0-.229 0-.34-.213-.05-.426-.066-.612-.15-.316-.141-.52-.551-.459-.848a.895.895 0 0 1 .281-.499.771.771 0 0 1 .506-.198c.196 0 .391.006.586-.004a.342.342 0 0 0 .22-.076c.081-.085.203-.277.188-.293-.113-.122-.246-.266-.39-.301-.21-.05-.438-.009-.657-.015-.342-.01-.665-.321-.732-.699-.052-.283.142-.693.417-.826a.694.694 0 0 1 .352-.062c.234.02.321-.07.305-.327-.02-.337.115-.616.39-.762.532-.28 1.111.056 1.119.698v.504c-.001.38.002.386.317.63zM8.934 5.652c.072.93-.685 1.67-1.512 1.65a1.463 1.463 0 0 1-1.052-.508 1.726 1.726 0 0 1-.42-1.164c.007-.863.664-1.61 1.54-1.617.728-.007 1.567.817 1.444 1.639zM18.992 12.773c.02 1.037-.736 1.649-1.502 1.636a1.456 1.456 0 0 1-1.053-.5 1.718 1.718 0 0 1-.423-1.162c.008-.91.657-1.605 1.502-1.622.812-.015 1.566.766 1.476 1.648zM15.712 20.683c-.37 0-.731-.42-.724-.837.007-.431.376-.812.781-.805.1 0 .198.023.289.067a.748.748 0 0 1 .242.183c.068.078.122.17.157.27.035.102.052.21.049.317-.014.476-.34.805-.794.805zM13.474 16.03c.045.5-.37.83-.764.83-.374 0-.753-.429-.742-.83a.883.883 0 0 1 .241-.576.749.749 0 0 1 .54-.235c.431.004.725.335.725.811z"/>
    </g>
    <defs>
        <filter id="cqka6k35ka" x="-16" y="-14" width="51" height="53.165" filterUnits="userSpaceOnUse" color-interpolation-filters="sRGB">
            <feFlood flood-opacity="0" result="BackgroundImageFix"/>
            <feBlend in="SourceGraphic" in2="BackgroundImageFix" result="shape"/>
            <feColorMatrix in="SourceAlpha" values="0 0 0 0 0 0 0 0 0 0 0 0 0 0 0 0 0 0 127 0" result="hardAlpha"/>
            <feOffset dx="8" dy="-15"/>
            <feGaussianBlur stdDeviation="15"/>
            <feComposite in2="hardAlpha" operator="arithmetic" k2="-1" k3="1"/>
            <feColorMatrix values="0 0 0 0 0 0 0 0 0 0 0 0 0 0 0 0 0 0 0.2 0"/>
            <feBlend in2="shape" result="effect1_innerShadow_5857_18914"/>
            <feColorMatrix in="SourceAlpha" values="0 0 0 0 0 0 0 0 0 0 0 0 0 0 0 0 0 0 127 0" result="hardAlpha"/>
            <feOffset dx="-18" dy="11"/>
            <feGaussianBlur stdDeviation="15"/>
            <feComposite in2="hardAlpha" operator="arithmetic" k2="-1" k3="1"/>
            <feColorMatrix values="0 0 0 0 1 0 0 0 0 1 0 0 0 0 1 0 0 0 1 0"/>
            <feBlend in2="effect1_innerShadow_5857_18914" result="effect2_innerShadow_5857_18914"/>
            <feColorMatrix in="SourceAlpha" values="0 0 0 0 0 0 0 0 0 0 0 0 0 0 0 0 0 0 127 0" result="hardAlpha"/>
            <feOffset dx="8" dy="-15"/>
            <feGaussianBlur stdDeviation="15"/>
            <feComposite in2="hardAlpha" operator="arithmetic" k2="-1" k3="1"/>
            <feColorMatrix values="0 0 0 0 0 0 0 0 0 0 0 0 0 0 0 0 0 0 0.2 0"/>
            <feBlend in2="effect2_innerShadow_5857_18914" result="effect3_innerShadow_5857_18914"/>
            <feColorMatrix in="SourceAlpha" values="0 0 0 0 0 0 0 0 0 0 0 0 0 0 0 0 0 0 127 0" result="hardAlpha"/>
            <feOffset dx="-18" dy="11"/>
            <feGaussianBlur stdDeviation="15"/>
            <feComposite in2="hardAlpha" operator="arithmetic" k2="-1" k3="1"/>
            <feColorMatrix values="0 0 0 0 1 0 0 0 0 1 0 0 0 0 1 0 0 0 1 0"/>
            <feBlend in2="effect3_innerShadow_5857_18914" result="effect4_innerShadow_5857_18914"/>
        </filter>
    </defs>
</svg>
