<svg width="30" height="30" viewBox="0 0 30 30" fill="none" xmlns="http://www.w3.org/2000/svg">
    <g clip-path="url(#v27c2wic0a)">
        <path d="M12.498 12.43c-.258.313-.547.39-.99.242a431.52 431.52 0 0 1-3.288-1.119.477.477 0 0 0-.505.079c-.915.698-1.84 1.383-2.763 2.07-.567.421-1.25.246-1.45-.376a1.078 1.078 0 0 1-.043-.344c.012-1.16.024-2.321.05-3.482a.475.475 0 0 0-.23-.455C2.382 8.42 1.482 7.795.607 7.15.373 6.977.201 6.722 0 6.505v-.527c.202-.374.532-.547.932-.663 1.134-.338 2.258-.71 3.386-1.07.078.09.141.185.223.267 2.57 2.572 5.141 5.143 7.713 7.713.075.074.163.138.244.205z" fill="#FED745"/>
        <path d="M12.498 12.43c-.078-.069-.169-.131-.244-.206-2.572-2.57-5.143-5.141-7.713-7.713-.078-.078-.15-.178-.223-.267C4.66 3.12 5.01 1.998 5.338.87c.116-.397.309-.704.697-.87h.469c.234.227.498.428.688.685.636.86 1.25 1.742 1.86 2.623a.426.426 0 0 0 .41.205c1.14-.025 2.28-.032 3.421-.06.418-.01.75.116.95.495.205.39.063.73-.18 1.054-.68.903-1.347 1.816-2.032 2.714a.468.468 0 0 0-.072.505c.376 1.084.746 2.171 1.11 3.261.112.34.122.67-.161.948z" fill="#FEEE4A"/>
        <path d="M29.999 2.871c-.34.824-1.084.619-1.758.65v.835c-.007.536-.386.925-.891.917-.493-.007-.86-.39-.865-.916-.004-.27 0-.54 0-.841h-.841c-.537-.008-.925-.39-.916-.894.008-.492.39-.855.917-.86h.827c.05-.65-.178-1.416.657-1.757h.47c.822.342.618 1.085.65 1.752.666.033 1.41-.174 1.752.65l-.002.464z" fill="#FED746"/>
        <path d="M24.253 24.315c.382-.38.895-.404 1.272-.03a726.185 726.185 0 0 1 4.199 4.2c.113.114.184.268.275.404v.41l-.292.468c-.043-.052-.083-.107-.13-.156a2655.22 2655.22 0 0 0-5.146-5.145c-.055-.06-.119-.105-.178-.15z" fill="#FED748"/>
        <path d="M24.253 24.315c.06.05.123.094.178.148a2655.22 2655.22 0 0 1 5.145 5.146c.048.047.088.103.13.156l-.352.234h-.468c-.207-.156-.433-.294-.615-.476a737.688 737.688 0 0 1-3.948-3.943c-.402-.406-.423-.864-.07-1.265z" fill="#FEB455"/>
        <path d="M26.952 22.939c-.23-.124-.469-.192-.621-.345a1886.48 1886.48 0 0 1-7.435-7.428.875.875 0 0 1-.02-1.24c.332-.347.86-.359 1.243-.027.037.032.07.068.105.103l7.265 7.265c.444.444.482 1.003.07 1.358-.158.137-.38.2-.607.314z" fill="#FED847"/>
        <path d="M15.33 21.279c-.212-.121-.464-.204-.632-.37a814.25 814.25 0 0 1-5.32-5.313c-.4-.399-.404-.945-.035-1.302.369-.357.896-.327 1.281.057 1.774 1.77 3.547 3.543 5.317 5.317.304.304.381.665.234 1.016-.143.327-.449.528-.846.595z" fill="#FEB456"/>
        <path d="M22.85 9.375v-.842c.008-.525.374-.91.868-.915.494-.006.882.382.889.922.004.262 0 .525 0 .835h.79c.574 0 .965.358.967.875.001.517-.39.879-.958.883h-.8v.827c-.005.547-.374.932-.88.93-.507-.003-.87-.391-.875-.938v-.821h-.835c-.54-.007-.929-.383-.922-.89.005-.492.39-.858.914-.866.27-.003.542 0 .843 0z" fill="#FED746"/>
        <path d="M6.445 21.092H6.04c-.937 0-1.346-.26-1.35-.871-.005-.611.403-.886 1.364-.886h.39v-.825c.006-.546.373-.932.879-.932.505 0 .873.39.878.932v.825h.421c.931 0 1.34.271 1.336.886-.005.614-.409.871-1.35.871H8.2v.839c-.007.539-.386.927-.892.918-.494-.007-.86-.39-.864-.918-.002-.263.001-.526.001-.839z" fill="#FEB455"/>
        <path d="M16.98 22.991c.007-.53.168-.815.517-.965a.84.84 0 0 1 .973.175c.366.35.72.715 1.078 1.074 1 1 2 2 3.002 2.998.274.272.386.583.285.956-.136.506-.762.772-1.23.521a1.52 1.52 0 0 1-.344-.268c-1.312-1.308-2.626-2.614-3.926-3.935-.18-.183-.284-.44-.356-.556z" fill="#FEB456"/>
        <path d="M15.171 15.167c.402-.375.879-.362 1.29.049.844.838 1.686 1.679 2.526 2.522l3.99 3.994c.407.408.42.883.047 1.294-.06-.051-.122-.097-.177-.152-2.503-2.5-5.005-5.002-7.507-7.508-.061-.06-.113-.132-.169-.199z" fill="#FED748"/>
        <path d="M15.171 15.167c.056.067.108.138.169.2 2.5 2.503 5.002 5.005 7.507 7.507.055.055.118.1.177.151-.41.44-.967.293-1.268-.01-.405-.41-.814-.815-1.221-1.222-1.77-1.773-3.544-3.547-5.319-5.32-.428-.43-.44-.92-.045-1.306z" fill="#FEB454"/>
        <path d="M13.986 10.006c.067-.381.209-.644.505-.813a.836.836 0 0 1 .888.012c.091.057.175.125.249.202.65.646 1.298 1.294 1.944 1.944.423.424.449.937.074 1.321-.375.385-.891.354-1.32-.073-.657-.653-1.319-1.3-1.96-1.97-.167-.172-.255-.413-.38-.623zM28.138 16.699a.879.879 0 1 1 .865-.886.885.885 0 0 1-.865.886zM20.215 4.092a.879.879 0 1 1-.88-.87.885.885 0 0 1 .88.87z" fill="#FED848"/>
        <path d="M13.467 29.002a.878.878 0 1 1 .888-.859.887.887 0 0 1-.888.86zM1.77 25.487a.879.879 0 1 1 .867-.883.886.886 0 0 1-.867.883z" fill="#FEB557"/>
    </g>
    <defs>
        <clipPath id="v27c2wic0a">
            <path fill="#fff" d="M0 0h30v30H0z"/>
        </clipPath>
    </defs>
</svg>
