<svg width="30" height="30" viewBox="0 0 30 30" fill="none" xmlns="http://www.w3.org/2000/svg">
    <g filter="url(#ajx2xctpga)" fill="#fff">
        <path d="M23.563 27.85a5.324 5.324 0 0 1-5.313-5.312v-.625c0-.513.425-.938.938-.938.512 0 .937.425.937.938v.625c0 1.9 1.538 3.437 3.438 3.437 1.9 0 3.437-1.537 3.437-3.437S25.462 19.1 23.562 19.1H2.938A.944.944 0 0 1 2 18.163c0-.513.425-.938.938-.938h20.625a5.324 5.324 0 0 1 5.312 5.313 5.324 5.324 0 0 1-5.313 5.312zM23.563 15.35H2.938A.944.944 0 0 1 2 14.413c0-.513.425-.938.938-.938h20.625c1.9 0 3.437-1.537 3.437-3.437S25.462 6.6 23.562 6.6a3.436 3.436 0 0 0-3.437 3.438v.625a.944.944 0 0 1-.938.937.944.944 0 0 1-.937-.937v-.625a5.324 5.324 0 0 1 5.313-5.313 5.324 5.324 0 0 1 5.312 5.313 5.324 5.324 0 0 1-5.313 5.312z"/>
        <path d="M12.075 11.6H2.938A.944.944 0 0 1 2 10.662c0-.512.425-.937.938-.937h9.137A2.427 2.427 0 0 0 14.5 7.3a2.427 2.427 0 0 0-2.425-2.425A2.427 2.427 0 0 0 9.65 7.3v.475a.944.944 0 0 1-.938.938.936.936 0 0 1-.937-.938V7.3a4.3 4.3 0 1 1 4.3 4.3z"/>
    </g>
    <defs>
        <filter id="ajx2xctpga" x="-18" y="-15" width="56" height="56" filterUnits="userSpaceOnUse" color-interpolation-filters="sRGB">
            <feFlood flood-opacity="0" result="BackgroundImageFix"/>
            <feBlend in="SourceGraphic" in2="BackgroundImageFix" result="shape"/>
            <feColorMatrix in="SourceAlpha" values="0 0 0 0 0 0 0 0 0 0 0 0 0 0 0 0 0 0 127 0" result="hardAlpha"/>
            <feOffset dx="8" dy="-15"/>
            <feGaussianBlur stdDeviation="15"/>
            <feComposite in2="hardAlpha" operator="arithmetic" k2="-1" k3="1"/>
            <feColorMatrix values="0 0 0 0 0 0 0 0 0 0 0 0 0 0 0 0 0 0 0.2 0"/>
            <feBlend in2="shape" result="effect1_innerShadow_5947_16525"/>
            <feColorMatrix in="SourceAlpha" values="0 0 0 0 0 0 0 0 0 0 0 0 0 0 0 0 0 0 127 0" result="hardAlpha"/>
            <feOffset dx="-18" dy="11"/>
            <feGaussianBlur stdDeviation="15"/>
            <feComposite in2="hardAlpha" operator="arithmetic" k2="-1" k3="1"/>
            <feColorMatrix values="0 0 0 0 1 0 0 0 0 1 0 0 0 0 1 0 0 0 1 0"/>
            <feBlend in2="effect1_innerShadow_5947_16525" result="effect2_innerShadow_5947_16525"/>
        </filter>
    </defs>
</svg>
