<svg width="120" height="121" viewBox="0 0 120 121" fill="none" xmlns="http://www.w3.org/2000/svg">
    <path d="M1.167 120.236c-.752-.587-1.468-1.23-1.037-2.334.432-1.103 1.304-1.189 2.296-1.189 3.817 0 7.634-.017 11.45-.032H56.235c.467.015.936.041 1.403.041H94.63c2.35 0 4.68-.023 7.023-.038 5.253.015 10.508.047 15.764.024 1.092 0 1.993.199 2.583 1.174v2.348l-118.833.006z" fill="#29B188"/>
    <path d="M101.671 116.681c-2.35.015-4.698.036-7.023.038h-36.99c-.467 0-.937-.026-1.404-.041 0-11.487 0-22.977.026-34.466 0-.984.294-1.967.447-2.936l.475-.047h19.31l21.677.038c2.724 0 3.505.77 3.502 3.452-.008 11.316-.015 22.637-.02 33.962zm-25.25-16.145H92.12c1.312 0 2.117-.661 2.114-1.67 0-1.134-.778-1.838-2.097-1.838H60.972c-1.371 0-2.14.657-2.137 1.76.003 1.105.742 1.762 2.12 1.762l15.466-.014zm.109-9.142H92.108c1.318 0 2.126-.649 2.129-1.653 0-1.139-.77-1.829-2.079-1.86H61.233a6.959 6.959 0 0 0-.701 0 1.762 1.762 0 0 0-.047 3.495c.312.02.624.02.936 0l15.109.018zm.044 18.283h15.698c1.06 0 1.736-.449 1.941-1.45.206-1.001-.49-1.817-1.63-2.032a4.94 4.94 0 0 0-.933-.041H61.41c-1.785 0-2.608.587-2.587 1.803.02 1.215.772 1.711 2.507 1.711l15.244.009z" fill="#FE788F"/>
    <path d="M63.753 79.215h-6.559c-.54-.156-1.077-.443-1.614-.446-5.54-.032-11.08-.044-16.618 0-.72 0-1.433.44-2.149.678h-.708v-7.045h.71c.638.237 1.272.672 1.912.678 5.725.055 11.45.035 17.181.03 1.201 0 1.941-.626 1.988-1.645.05-1.1-.587-1.761-1.876-1.879-.393-.231-.787-.657-1.174-.663a856.655 856.655 0 0 0-15.209 0c-.396 0-.79.431-1.174.663l-1.4.482h-.934v-6.552l.71-.247c.635.238 1.269.675 1.906.681 5.684.056 11.365.03 17.046.035.992 0 1.832-.317 2.085-1.312.293-1.104-.294-1.858-1.363-2.213-.393-.232-.786-.66-1.174-.667a1010.68 1010.68 0 0 0-16.148 0c-.396 0-.79.435-1.174.67l-.934.475h-.934V54.14h.913c.511.235 1.02.667 1.533.67 5.805.05 11.606.04 17.41.023 1.107 0 1.827-.66 1.93-1.64.102-.981-.482-1.61-1.636-1.877-.317-.19-.634-.543-.954-.546-5.373-.033-10.747-.033-16.122 0-.402 0-.804.352-1.206.543h-.455l-1.175.23c-.076-2.19-.15-4.379-.223-6.565h.916c.55.232 1.098.664 1.653.67 5.696.05 11.395.035 17.093.026 1.336 0 2.105-.678 2.129-1.808.02-1.066-.781-1.703-2.167-1.703H38.81c-.494.04-.985.116-1.468.23h-.948V36.52l.461-.705.708-.93.246-.45 3.738-.026h16.95c.624 0 1.25 0 1.872.024 2.349.053 3.441 1.136 3.444 3.467V48.44l-.059 30.774z" fill="#BFCCCD"/>
    <path d="M30.916 116.684H18.75v-6.992h6.288c.993 0 1.783-.511 1.818-1.448.02-.587-.535-1.268-.995-1.746-.268-.276-.881-.294-1.319-.308-1.893-.033-3.79 0-5.734 0v-5.643h6.251c.992 0 1.665-.516 1.847-1.467a1.469 1.469 0 0 0-1.078-1.823 4.458 4.458 0 0 0-1.25-.215c-1.903-.023-3.817 0-5.767 0v-5.636h5.98c1.334 0 2.174-.71 2.156-1.78-.018-1.068-.843-1.725-2.202-1.731H18.8v-5.63h5.405c1.236 0 2.055-.746 2.055-1.762s-.825-1.723-2.085-1.732c-1.779-.015-3.558 0-5.364 0v-5.648h5.408c1.236 0 2.055-.743 2.055-1.761 0-1.019-.825-1.724-2.081-1.732-1.782-.015-3.561 0-5.417 0 0-1.594.068-3.153-.02-4.697-.071-1.24.355-2.117 1.406-2.727h10.772c-.016 18.145-.022 36.305-.018 54.478z" fill="#F9C049"/>
    <path d="M30.917 116.685V62.168c0-7.991.09-15.982 0-23.972-.039-2.962 1.555-3.866 3.816-3.74.467.023.936 0 1.403 0l1.635.02-.246.45-.731.942-.461.704v5.871c-.076.858-.15 1.717-.223 2.578l.223 6.564c-.076.857-.15 1.716-.223 2.577v62.528l-5.193-.005z" fill="#AEBBBB"/>
    <path d="M20.134 62.176c-1.05.61-1.468 1.488-1.406 2.727.088 1.55.02 3.109.02 4.697h5.418c1.256 0 2.055.702 2.081 1.732.027 1.03-.804 1.762-2.055 1.762-1.785.014-3.57 0-5.408 0v5.624h5.364c1.26 0 2.07.699 2.085 1.732.014 1.033-.805 1.761-2.056 1.761-1.785.015-3.57 0-5.405 0v5.625h5.946c1.359 0 2.187.666 2.201 1.732.015 1.066-.822 1.761-2.154 1.779h-5.981v5.625h5.766c.425.011.846.083 1.25.214a1.47 1.47 0 0 1 1.078 1.823c-.182.948-.854 1.468-1.846 1.468H18.78v5.624c1.944 0 3.84-.017 5.734 0 .452 0 1.051.033 1.318.309.461.478 1.016 1.174.995 1.746-.035.937-.825 1.445-1.817 1.447H18.75v6.993h-4.874V64.953c0-2.143.766-2.912 2.871-2.909a56.72 56.72 0 0 0 3.389.132z" fill="#F7A84A"/>
    <path d="M91.421 7.818c6.612 1.233 11.099 6.494 10.996 12.888-.103 6.214-5.197 11.956-10.975 12.364a6.094 6.094 0 0 0-.925-.449 12.73 12.73 0 0 1-8.899-10.677c-.587-5.284 2.108-10.72 7.24-12.937.855-.373 1.7-.79 2.563-1.189z" fill="#F9C049"/>
    <path d="M58.436 34.44h-16.95v-8.272c0-1.174-.123-2.386.7-3.4l.915-.058h8.256c1.468.015 2.954.023 4.43.041 1.918.026 2.61.71 2.623 2.586.013 3.036.022 6.07.026 9.104z" fill="#A5AFAF"/>
    <path d="M76.504 79.213h-8.06c0-8.92.009-17.841.024-26.763a3128.38 3128.38 0 0 0 7.064 5.915c.86.725.972 1.706.97 2.753a6201.09 6201.09 0 0 0 .002 18.095z" fill="#1B9AAE"/>
    <path d="M68.466 52.45c0 8.923-.007 17.844-.023 26.764h-4.697V48.473l4.72 3.977z" fill="#0E7C95"/>
    <path d="M91.421 7.818c-.854.4-1.7.817-2.563 1.19-5.132 2.216-7.827 7.632-7.24 12.937a12.728 12.728 0 0 0 8.899 10.676c.32.124.63.274.925.45-3.012.63-5.805-.048-8.382-1.586-4.824-2.877-6.95-7.982-6.075-13.175a12.705 12.705 0 0 1 10.82-10.515c1.17-.167 2.4.006 3.616.023z" fill="#F7A749"/>
    <path d="M42.182 22.776c-.822 1.012-.705 2.213-.699 3.399v8.272l-3.737.027-1.635-.02v-9.245c0-1.861.602-2.466 2.437-2.466 1.215 0 2.425.02 3.634.033z" fill="#989F9F"/>
    <path d="M45.465 14.041V3.062a9.027 9.027 0 0 1 0-.934c.117-1.174.851-1.931 1.817-1.89.966.041 1.676.825 1.682 2.008.018 3.934 0 7.864 0 11.798l-3.5-.003z" fill="#A4D8F3"/>
    <path d="M45.465 14.042h3.522c-.733 1.468-.766 3.03-.719 4.618.041 1.35 0 2.703 0 4.054h-5.19c0-2.098.005-4.197.015-6.297.026-1.808.505-2.29 2.372-2.375z" fill="#AFBBBB"/>
    <path d="M48.288 22.724c0-1.35.03-2.704 0-4.055-.047-1.588 0-3.155.72-4.617 1.875.293 2.348.819 2.348 2.624v6.036l-3.068.012zM36.105 116.678V79.452h.708c-.4 2.166.138 2.806 2.349 2.806h12.134v5.622c-4.166 0-8.332-.041-12.498.044-.664 0-1.586.405-1.923.924-.84 1.29.102 2.54 1.805 2.546h12.625v5.621H39.159a4.768 4.768 0 0 0-1.591.256 1.559 1.559 0 0 0-.808 2.225c.426.857 1.175 1.036 2.055 1.033 4.167-.017 8.333 0 12.499 0v5.622H38.918c-1.42 0-2.384.816-2.334 1.92.047.983.928 1.588 2.334 1.591h12.396l.044 6.992-15.252.024z" fill="#BFCCCD"/>
    <path d="M51.307 106.172V82.267c.15-2.284.94-3.038 3.197-3.038.736 0 1.467.02 2.213.032-.156.984-.443 1.967-.446 2.936-.035 11.49-.024 22.98-.027 34.467h-4.893l-.044-6.993v-3.499z" fill="#FB5C70"/>
    <path d="M76.419 100.547H60.952c-1.377 0-2.117-.617-2.12-1.762-.003-1.145.766-1.761 2.137-1.761h31.166c1.318 0 2.09.704 2.096 1.838 0 1.01-.801 1.667-2.114 1.67-5.232.018-10.465.022-15.698.015zM76.527 91.406H61.422a7.66 7.66 0 0 1-.937 0 1.762 1.762 0 0 1 .047-3.497c.234-.012.468-.012.702 0h30.918c1.31.032 2.082.722 2.08 1.861 0 1.004-.811 1.644-2.13 1.653h-5.384l-10.19-.017zM76.572 109.688H61.34c-1.735 0-2.487-.514-2.508-1.711-.02-1.198.802-1.803 2.587-1.803h30.24c.312-.015.625-.002.934.041 1.14.215 1.832 1.028 1.63 2.032-.203 1.004-.881 1.468-1.941 1.45-5.244-.021-10.478-.009-15.71-.009z" fill="#FB5B6F"/>
    <path d="M56.718 79.261c-.737 0-1.468-.032-2.213-.032-2.258 0-3.048.754-3.198 3.038H39.161c-2.222 0-2.76-.64-2.349-2.806.717-.238 1.43-.67 2.15-.678a921.422 921.422 0 0 1 16.617 0c.537 0 1.075.293 1.615.446l-.476.032z" fill="#A5AEAE"/>
    <path d="M56.02 69.597c1.274.126 1.926.778 1.876 1.879-.047 1.018-.787 1.643-1.988 1.643-5.728 0-11.45.027-17.181-.029-.64 0-1.274-.44-1.915-.678.077-.778.15-1.556.227-2.349l1.4-.481 17.58.015zM56.484 60.459c1.08.355 1.642 1.11 1.363 2.213-.253.996-1.093 1.316-2.085 1.313-5.68 0-11.362.02-17.046-.036-.637 0-1.271-.443-1.906-.68l.224-2.331.933-.476 18.517-.003zM37.275 42.42c.483-.113.973-.19 1.468-.23 5.66-.013 11.32-.013 16.978 0 1.386 0 2.188.638 2.167 1.704-.023 1.13-.792 1.808-2.128 1.808-5.699 0-11.398.023-17.094-.026-.554 0-1.103-.438-1.652-.67-.685-.945-.435-1.785.26-2.586zM56.255 51.315c1.154.267 1.735.933 1.636 1.875-.1.943-.822 1.638-1.93 1.641-5.804.018-11.605.027-17.41-.023-.513 0-1.021-.435-1.532-.67-.813-1.11-.294-1.981.499-2.806h.455l18.282-.017z" fill="#A5AFAF"/>
    <path d="M56.483 60.46H37.986c.394-.235.787-.664 1.175-.67 5.38-.043 10.763-.043 16.148 0 .393.009.786.443 1.174.67zM56.02 69.598H38.44c.396-.232.79-.658 1.174-.664 5.07-.045 10.139-.045 15.208 0 .411.006.805.432 1.198.664zM56.255 51.314H37.973c.402-.19.804-.54 1.206-.543 5.377-.037 10.75-.037 16.122 0 .32 0 .637.361.954.543zM37.518 51.332c-.799.825-1.313 1.697-.5 2.806h-.913l.224-2.577 1.189-.229zM37.274 42.419c-.696.801-.945 1.64-.253 2.577h-.916l.224-2.577h.945zM37.039 60.938c-.073.777-.15 1.555-.223 2.33l-.71.247v-2.58l.933.002zM37.039 70.078c-.076.778-.15 1.556-.226 2.349h-.708v-2.349h.934zM36.795 35.868l.707-.93-.707.93zM36.334 36.557l.46-.705-.46.705z" fill="#BFCCCD"/>
    <path d="M51.307 87.889v3.523H38.682c-1.702 0-2.642-1.257-1.805-2.546.337-.52 1.26-.913 1.923-.924 4.178-.094 8.341-.053 12.507-.053zM51.308 97.03v3.523H38.809c-.88 0-1.62-.176-2.055-1.033a1.56 1.56 0 0 1 .808-2.225 4.77 4.77 0 0 1 1.59-.256c4.058-.017 8.107-.008 12.156-.008zM51.308 106.171v3.523H38.912c-1.406 0-2.287-.608-2.334-1.591-.05-1.104.913-1.917 2.334-1.92 4.131-.018 8.265-.012 12.396-.012z" fill="#A5AFAF"/>
</svg>
