<svg width="120" height="120" viewBox="0 0 120 120" fill="none" xmlns="http://www.w3.org/2000/svg">
    <g opacity=".4">
        <path d="M1.167 120c-.752-.587-1.468-1.23-1.037-2.334.432-1.104 1.304-1.189 2.296-1.189 3.817 0 7.634-.017 11.45-.032H56.235c.467.015.936.041 1.403.041H94.63c2.35 0 4.68-.024 7.023-.038 5.253.014 10.508.047 15.763.023 1.093 0 1.994.2 2.584 1.174v2.349L1.167 120z" fill="#29B188"/>
        <path d="M101.67 116.445c-2.348.015-4.697.035-7.022.038h-36.99c-.468 0-.937-.026-1.404-.041 0-11.487 0-22.977.026-34.467 0-.983.294-1.967.447-2.935l.475-.047h19.31l21.676.038c2.725 0 3.506.769 3.503 3.452-.008 11.316-.015 22.636-.021 33.962zm-25.249-16.146H92.12c1.312 0 2.117-.66 2.114-1.67 0-1.133-.778-1.838-2.097-1.838H60.972c-1.371 0-2.14.658-2.137 1.761.003 1.104.742 1.762 2.12 1.762l15.466-.015zm.109-9.141h15.578c1.318 0 2.126-.649 2.129-1.653 0-1.139-.77-1.829-2.08-1.861H61.234a6.959 6.959 0 0 0-.701 0 1.762 1.762 0 0 0-.047 3.496c.312.02.624.02.936 0l15.109.018zm.044 18.283h15.698c1.06 0 1.735-.45 1.941-1.451.206-1.001-.49-1.817-1.63-2.031a4.94 4.94 0 0 0-.933-.041H61.41c-1.786 0-2.608.587-2.587 1.802.02 1.216.772 1.712 2.507 1.712l15.244.009z" fill="#FE788F"/>
        <path d="M63.754 78.979h-6.56c-.54-.156-1.077-.444-1.614-.446-5.54-.033-11.08-.044-16.618 0-.72 0-1.433.44-2.149.678h-.708v-7.046h.711c.637.238 1.271.672 1.911.678 5.725.056 11.45.036 17.182.03 1.2 0 1.94-.626 1.987-1.644.05-1.101-.587-1.761-1.876-1.879-.393-.232-.787-.657-1.174-.663a856.655 856.655 0 0 0-15.209 0c-.396 0-.79.431-1.174.663l-1.4.482h-.934v-6.553l.71-.246c.635.237 1.269.675 1.906.68 5.684.056 11.365.03 17.046.036.992 0 1.832-.317 2.085-1.312.293-1.104-.294-1.858-1.363-2.214-.393-.232-.786-.66-1.174-.666a1010.68 1010.68 0 0 0-16.148 0c-.396 0-.79.434-1.174.67l-.934.475h-.933v-6.799h.913c.51.235 1.018.666 1.532.67 5.805.05 11.606.04 17.41.023 1.107 0 1.827-.66 1.93-1.641.102-.98-.482-1.609-1.636-1.876-.317-.19-.634-.543-.954-.546-5.373-.033-10.747-.033-16.121 0-.403 0-.805.352-1.207.543h-.455l-1.175.229c-.076-2.19-.15-4.378-.223-6.564h.916c.55.232 1.098.663 1.653.67 5.696.05 11.395.035 17.093.026 1.336 0 2.105-.678 2.129-1.809.02-1.065-.781-1.702-2.167-1.702H38.81c-.495.04-.986.116-1.468.229h-.949v-5.872l.461-.704.708-.93.246-.45 3.738-.026h16.95c.624 0 1.25 0 1.872.023 2.35.053 3.441 1.136 3.444 3.467v10.542l-.058 30.774z" fill="#BFCCCD"/>
        <path d="M30.916 116.448H18.75v-6.993h6.288c.993 0 1.783-.51 1.818-1.447.02-.587-.535-1.268-.995-1.747-.268-.275-.881-.293-1.319-.308-1.893-.032-3.79 0-5.734 0v-5.642h6.251c.992 0 1.665-.517 1.847-1.468a1.467 1.467 0 0 0-1.078-1.823 4.458 4.458 0 0 0-1.25-.214c-1.903-.024-3.817 0-5.767 0V91.17h5.98c1.334 0 2.174-.71 2.156-1.78-.018-1.068-.843-1.725-2.202-1.731H18.8v-5.63h5.405c1.236 0 2.055-.746 2.055-1.762s-.825-1.723-2.085-1.732c-1.779-.015-3.558 0-5.364 0v-5.648h5.408c1.236 0 2.055-.743 2.055-1.762 0-1.018-.825-1.723-2.081-1.732-1.782-.014-3.561 0-5.417 0 0-1.594.068-3.153-.02-4.697-.071-1.238.355-2.116 1.406-2.727h10.772c-.016 18.146-.022 36.306-.018 54.479z" fill="#F9C049"/>
        <path d="M30.917 116.448V61.931c0-7.99.09-15.981 0-23.972-.039-2.962 1.555-3.866 3.816-3.74.467.024.936 0 1.403 0l1.635.02-.246.45-.731.942-.461.705v5.871c-.076.857-.15 1.716-.223 2.578l.223 6.564a541.2 541.2 0 0 0-.223 2.577v62.528l-5.193-.006z" fill="#AEBBBB"/>
        <path d="M20.134 61.94c-1.05.61-1.468 1.488-1.406 2.727.088 1.55.02 3.109.02 4.697h5.418c1.256 0 2.055.701 2.081 1.732.027 1.03-.804 1.761-2.055 1.761-1.785.015-3.57 0-5.408 0v5.625h5.364c1.26 0 2.07.698 2.085 1.732.014 1.033-.805 1.761-2.056 1.761-1.785.015-3.57 0-5.405 0V87.6h5.946c1.359 0 2.187.666 2.201 1.732.015 1.065-.822 1.761-2.154 1.779h-5.981v5.624h5.766c.425.012.846.084 1.25.215a1.468 1.468 0 0 1 1.078 1.823c-.182.948-.854 1.467-1.846 1.467H18.78v5.625c1.944 0 3.84-.018 5.734 0 .452 0 1.051.032 1.318.308.461.479 1.016 1.174.995 1.747-.035.936-.825 1.444-1.817 1.447H18.75v6.993h-4.874V64.717c0-2.143.766-2.912 2.871-2.91 1.125.086 2.258.115 3.389.133z" fill="#F7A84A"/>
        <path d="M91.422 7.582c6.612 1.233 11.098 6.494 10.995 12.887-.103 6.215-5.197 11.957-10.975 12.365a6.104 6.104 0 0 0-.925-.45 12.73 12.73 0 0 1-8.898-10.676c-.588-5.284 2.108-10.72 7.24-12.937.854-.373 1.7-.79 2.563-1.189z" fill="#F9C049"/>
        <path d="M58.436 34.204h-16.95v-8.272c0-1.174-.123-2.387.7-3.4l.915-.058h8.256c1.468.014 2.954.023 4.43.04 1.918.027 2.61.711 2.623 2.587.013 3.035.022 6.07.026 9.103z" fill="#A5AFAF"/>
        <path d="M76.504 78.977h-8.06c0-8.92.009-17.841.024-26.764 2.35 1.973 4.704 3.945 7.064 5.916.86.725.972 1.705.97 2.753-.009 6.034-.008 12.066.002 18.095z" fill="#1B9AAE"/>
        <path d="M68.466 52.214c0 8.922-.007 17.844-.023 26.764h-4.697V48.236l4.72 3.978z" fill="#0E7C95"/>
        <path d="M91.421 7.582c-.854.4-1.7.816-2.563 1.189-5.132 2.216-7.827 7.633-7.24 12.937a12.728 12.728 0 0 0 8.9 10.677c.32.123.629.274.924.45-3.012.63-5.804-.048-8.382-1.586-4.824-2.877-6.95-7.982-6.075-13.175a12.704 12.704 0 0 1 10.82-10.515c1.17-.168 2.4.005 3.616.023z" fill="#F7A749"/>
        <path d="M42.182 22.54c-.822 1.012-.704 2.213-.699 3.399v8.272l-3.736.026-1.636-.02v-9.244c0-1.861.602-2.466 2.437-2.466 1.215 0 2.425.02 3.634.032z" fill="#989F9F"/>
        <path d="M45.465 13.805V2.825a8.972 8.972 0 0 1 0-.933c.117-1.174.851-1.932 1.817-1.89.966.04 1.676.824 1.682 2.008.018 3.933 0 7.864 0 11.798l-3.5-.003z" fill="#A4D8F3"/>
        <path d="M45.465 13.806h3.522c-.733 1.468-.766 3.03-.719 4.617.041 1.35 0 2.704 0 4.054h-5.19c0-2.098.005-4.197.015-6.296.026-1.809.505-2.29 2.372-2.375z" fill="#AFBBBB"/>
        <path d="M48.288 22.487c0-1.35.03-2.703 0-4.054-.047-1.588 0-3.156.72-4.618 1.875.294 2.348.82 2.348 2.625v6.035l-3.068.012zM36.105 116.442V79.215h.708c-.4 2.167.138 2.807 2.349 2.807h12.134v5.621c-4.166 0-8.332-.04-12.498.044-.664 0-1.586.406-1.923.925-.84 1.289.102 2.54 1.805 2.545h12.625v5.622H39.159a4.768 4.768 0 0 0-1.591.255 1.559 1.559 0 0 0-.808 2.226c.426.857 1.175 1.036 2.055 1.033 4.166-.018 8.333 0 12.499 0v5.622H38.918c-1.42 0-2.384.816-2.334 1.919.047.984.928 1.589 2.334 1.592h12.396l.044 6.992-15.252.024z" fill="#BFCCCD"/>
        <path d="M51.307 105.936V82.031c.15-2.284.939-3.038 3.197-3.038.736 0 1.467.02 2.213.032-.156.983-.443 1.967-.446 2.936-.035 11.49-.024 22.979-.027 34.466h-4.893l-.044-6.992v-3.499z" fill="#FB5C70"/>
        <path d="M76.418 100.31H60.952c-1.377 0-2.117-.616-2.12-1.761-.003-1.145.766-1.761 2.137-1.761h31.166c1.318 0 2.09.704 2.096 1.837 0 1.01-.801 1.668-2.114 1.671-5.232.017-10.465.022-15.699.014zM76.527 91.17H61.422c-.312.018-.625.018-.937 0a1.761 1.761 0 0 1 .047-3.497c.234-.012.468-.012.702 0h30.918c1.31.032 2.082.722 2.079 1.861 0 1.004-.81 1.644-2.129 1.653h-5.384l-10.19-.018zM76.572 109.452H61.34c-1.735 0-2.487-.514-2.508-1.712-.02-1.197.802-1.802 2.587-1.802h30.24a4.94 4.94 0 0 1 .934.041c1.14.214 1.832 1.028 1.63 2.031-.203 1.004-.881 1.468-1.941 1.451-5.244-.021-10.479-.009-15.71-.009z" fill="#FB5B6F"/>
        <path d="M56.718 79.025c-.737 0-1.468-.032-2.213-.032-2.258 0-3.048.754-3.198 3.038H39.161c-2.222 0-2.76-.64-2.349-2.806.717-.238 1.43-.67 2.15-.679a923.27 923.27 0 0 1 16.617 0c.538 0 1.075.294 1.615.447l-.476.032z" fill="#A5AEAE"/>
        <path d="M56.02 69.36c1.274.127 1.926.778 1.876 1.88-.047 1.018-.787 1.643-1.988 1.643-5.728 0-11.45.026-17.181-.03-.64 0-1.274-.44-1.914-.677.076-.778.15-1.556.226-2.349l1.4-.481 17.58.014zM56.484 60.223c1.08.355 1.642 1.11 1.363 2.213-.253.995-1.092 1.315-2.085 1.312-5.68 0-11.362.02-17.046-.035-.637 0-1.271-.443-1.906-.681l.224-2.33.933-.476 18.517-.003zM37.275 42.184c.483-.113.974-.19 1.468-.23 5.66-.013 11.32-.013 16.978 0 1.386 0 2.188.638 2.167 1.703-.023 1.13-.792 1.809-2.128 1.809-5.699 0-11.398.023-17.093-.027-.555 0-1.104-.437-1.654-.67-.683-.944-.434-1.784.262-2.585zM56.255 51.078c1.154.267 1.736.934 1.636 1.876-.1.942-.822 1.638-1.93 1.641-5.804.018-11.605.026-17.41-.023-.513 0-1.021-.435-1.532-.67-.813-1.11-.294-1.981.5-2.806h.454l18.282-.018z" fill="#A5AFAF"/>
        <path d="M56.483 60.223H37.986c.394-.235.787-.663 1.175-.67 5.38-.042 10.763-.042 16.148 0 .393.01.786.444 1.174.67zM56.02 69.361H38.44c.396-.232.79-.657 1.174-.663 5.07-.045 10.139-.045 15.208 0 .411.006.805.431 1.198.663zM56.255 51.078H37.973c.402-.191.804-.54 1.206-.543 5.377-.037 10.75-.037 16.122 0 .32 0 .637.36.954.543zM37.517 51.096c-.798.825-1.312 1.697-.499 2.806h-.913l.224-2.577 1.188-.23zM37.274 42.183c-.696.801-.945 1.64-.253 2.577h-.916l.224-2.577h.945zM37.039 60.701c-.073.778-.15 1.556-.223 2.331l-.71.247v-2.58l.933.002zM37.039 69.842c-.076.778-.15 1.556-.226 2.348h-.708v-2.348h.934zM36.795 35.632l.707-.93-.707.93zM36.334 36.32l.46-.704-.46.705z" fill="#BFCCCD"/>
        <path d="M51.307 87.653v3.522H38.682c-1.702 0-2.642-1.256-1.805-2.545.337-.52 1.26-.913 1.923-.925 4.178-.094 8.341-.052 12.507-.052zM51.308 96.794v3.523H38.81c-.881 0-1.621-.176-2.056-1.033a1.56 1.56 0 0 1 .808-2.226 4.768 4.768 0 0 1 1.591-.255c4.058-.018 8.106-.009 12.155-.009zM51.308 105.935v3.523H38.912c-1.406 0-2.287-.608-2.334-1.591-.05-1.104.913-1.917 2.334-1.92 4.131-.018 8.265-.012 12.396-.012z" fill="#A5AFAF"/>
    </g>
</svg>
