<svg width="30" height="30" viewBox="0 0 30 30" fill="none" xmlns="http://www.w3.org/2000/svg">
    <path d="m16.978 12.353-.037.54.09.039c.062-.07.115-.147.158-.23.521-1.465 1.535-2.38 3.077-2.712 1.456-.313 3.104.33 3.969 1.558-.386.211-.777.412-1.157.636-.182.106-.346.244-.517.366l-.184-.164a2 2 0 0 0-1.868-.458 1.999 1.999 0 0 0-.866.482c-.242.23-.422.518-.522.836-.09.278-.088.494.207.646.095.05.166.154.245.233-.5.302-.995.6-1.486.906-.08.068-.152.146-.211.232-1.507-.896-3.233-.14-3.718 1.253a.974.974 0 0 1-.36.448 1.747 1.747 0 0 0-.796 1.194c-.328.17-.654.343-.985.507-.292.145-.589.28-.884.42-.255-.832-.166-1.663.285-2.371.551-.857 1.237-1.628 1.864-2.436.006-.008.019-.01.028-.015.13-.029.256-.07.377-.124.662-.365 1.314-.746 1.977-1.11.43-.235.875-.45 1.314-.676z" fill="#fff"/>
    <path d="M11.13 19.088c.296-.14.592-.275.885-.42.333-.165.656-.337.985-.507-.016 1.026.788 1.648 1.704 1.617 1.119-.04 2.24 0 3.36 0a1.096 1.096 0 0 1-.2.21c-.867.505-1.739 1.003-2.605 1.511-.083.049-.13.157-.195.237-.584.035-1.167.023-1.72-.199-.234-.094-.342-.01-.487.165-.968 1.167-1.956 2.32-2.928 3.484-.583.698-1.296.666-1.842.014-.815-.972-1.646-1.932-2.47-2.897.102-.045.206-.082.305-.138.486-.262.97-.527 1.455-.791l1.596 1.875a.637.637 0 0 0 .114-.082c.781-.96 1.565-1.918 2.334-2.884.06-.077.043-.247.01-.355-.085-.288-.199-.562-.3-.84z" fill="#fff"/>
    <path d="M15.064 21.736c.065-.083.112-.188.195-.237.866-.508 1.738-1.006 2.604-1.512a1.08 1.08 0 0 0 .2-.21c.81 0 1.621.015 2.43-.02.298-.016.587-.1.845-.248.653-.379.934-1.295.381-2.142.672-.38 1.342-.764 2.02-1.133.192-.09.39-.168.593-.233-.152.195-.284.408-.46.577-.176.17-.202.294-.114.51a3.157 3.157 0 0 1-.156 2.822c-.642 1.168-1.666 1.804-3.011 1.824-1.843.032-3.685.005-5.527.002z" fill="#fff"/>
    <path d="M24.332 16.004a4.805 4.805 0 0 0-.594.232c-.678.37-1.347.754-2.02 1.133a1.688 1.688 0 0 0-1.416-.569c-.196.012-.395 0-.591 0-.435.007-.726-.194-.974-.548-.247-.354-.573-.659-.864-.989.06-.086.13-.164.211-.231.49-.31.99-.607 1.486-.907.159.165.34.308.471.488.119.165.25.193.44.22.472.054.938.15 1.392.286.542.178.583.196.874-.31.08-.143.143-.296.187-.454.189-.66.015-1.257-.376-1.804.172-.123.333-.26.517-.366.38-.22.771-.425 1.157-.636.99 1.259 1.034 3.246.1 4.455zM1.023 11.362c.06-1.025.294-2.004.78-2.917.147-.026.313-.017.435-.082 1.01-.568 2.012-1.154 3.018-1.73 1.403-.8 2.81-1.595 4.21-2.397.09-.052.15-.156.223-.236.904.017 1.743.282 2.556.653.083.038.167.07.25.105-.06.078-.101.183-.18.23-.416.246-.838.471-1.25.722a4.96 4.96 0 0 0-.508.4c-.166-.03-.325-.06-.489-.088-1.91-.316-3.6.158-5.062 1.407-.889.76-1.447 1.73-1.81 2.825-.282.141-.566.28-.847.423-.438.226-.88.46-1.326.685z" fill="#fff"/>
    <path d="M9.689 4c-.074.082-.134.184-.224.236-1.4.802-2.807 1.597-4.21 2.397-1.006.576-2.007 1.159-3.017 1.73-.122.068-.289.06-.435.082.56-1.271 1.47-2.253 2.595-3.053.908-.647 1.916-1.106 3.015-1.277.75-.116 1.52-.082 2.276-.115zM7.377 21.375c-.485.263-.97.529-1.455.79-.099.053-.203.094-.304.14l-1.942-2.778c.11-.057.22-.11.328-.17.464-.255.929-.513 1.392-.77l1.98 2.788zM16.977 12.353c-.439.226-.883.441-1.316.679-.663.363-1.315.741-1.977 1.11a2.026 2.026 0 0 1-.377.124c.403-.299.784-.635 1.217-.882.244-.138.382-.274.402-.54.022-.285.083-.577.066-.855-.042-.577-.126-1.154-.193-1.73.116-.04.23-.085.34-.137.476-.26.948-.528 1.422-.792.362.965.505 1.997.416 3.023zM10.564 6.11c.16-.143.33-.277.508-.399.411-.247.834-.475 1.25-.723.079-.046.12-.151.18-.229a7.073 7.073 0 0 1 2.5 1.901c-.315.209-.632.412-.943.627-.233.16-.458.33-.687.495a6.611 6.611 0 0 0-2.808-1.671zM1.023 11.363c.443-.23.886-.46 1.333-.686.281-.143.565-.282.848-.423-.27 1.064-.242 2.132-.044 3.202-.23.107-.46.21-.689.319-.383.183-.764.37-1.146.555-.232-.977-.385-1.957-.302-2.967z" fill="#fff"/>
    <path d="M13.376 7.777c.23-.165.454-.33.687-.494.311-.213.628-.419.942-.627a6.813 6.813 0 0 1 1.556 2.668c-.473.264-.946.532-1.422.793-.11.052-.223.097-.34.135a6.755 6.755 0 0 0-1.423-2.475zM5.396 18.588l-1.392.77c-.108.059-.219.112-.328.17l-1.367-2.533c.163-.122.333-.235.509-.34.396-.21.803-.401 1.205-.6l1.373 2.533z" fill="#fff"/>
    <path d="M4.023 16.054c-.403.2-.81.392-1.206.602a5.673 5.673 0 0 0-.51.34l-.926-2.461c-.025-.067-.039-.137-.058-.206.382-.185.763-.371 1.147-.555.228-.109.459-.212.688-.318l.865 2.598zM18.244 9.643c-.237-.146-.549-.243-.697-.452a5.77 5.77 0 0 1-.667-1.28c-.175-.461.088-.942.54-1.142.45-.2.973-.075 1.234.345.226.358.42.734.583 1.124.26.638-.254 1.338-.945 1.33l-.048.075zM27.298 13.156c.264.019.565.031.863.065.456.05.838.494.839.964 0 .507-.37.965-.876.989a6.738 6.738 0 0 1-1.363-.071c-.486-.074-.806-.577-.76-1.086.043-.448.473-.84.95-.863.103-.002.207.002.347.002zM27.176 18.534c-.05.419-.233.716-.583.896-.334.172-.701.189-1-.05a8.088 8.088 0 0 1-1.018-.952c-.3-.338-.232-.873.092-1.213.347-.364.868-.454 1.268-.156.355.27.683.572.98.902.134.147.177.379.26.573zM23.569 7.295c-.072.28-.152.738-.31 1.168-.166.455-.718.678-1.188.541-.5-.146-.784-.608-.687-1.162a8.53 8.53 0 0 1 .25-1.046.975.975 0 0 1 .44-.56.994.994 0 0 1 .707-.117c.476.086.796.492.788 1.176zM26.604 8.675c.439.026.762.24.924.635.163.394.098.761-.218 1.04a8.006 8.006 0 0 1-1.04.778c-.393.248-.959.12-1.238-.229-.305-.379-.325-.95.021-1.269.357-.31.736-.595 1.135-.85.109-.076.274-.073.416-.105zM12.43 11.24c.391 1.868-.944 3.733-2.87 4.026-1.032.157-1.95-.071-2.75-.742.055-.072.12-.136.192-.192.309-.184.631-.346.937-.534.24-.147.465-.32.697-.482.968.083 1.405-.182 1.839-1.099.434-.222.867-.446 1.303-.665.214-.105.434-.208.652-.312zM5.562 12.352c-.192-.924.067-1.752.592-2.5A3.407 3.407 0 0 1 7.822 8.59a3.448 3.448 0 0 1 2.099-.057c.44.132.833.423 1.25.642-.584.33-1.172.659-1.75 1-.07.04-.11.132-.167.2-.802-.072-1.34.294-1.684.99-.258.12-.52.237-.775.363-.414.205-.823.416-1.233.624z" fill="#fff"/>
    <path d="M9.252 10.377c.053-.069.092-.16.166-.201.584-.338 1.167-.668 1.75-1 .712.514 1.11 1.216 1.264 2.06-.219.105-.439.207-.655.316-.436.219-.87.443-1.304.665 0-.223.034-.453-.012-.667-.139-.643-.59-.998-1.21-1.173zM5.562 12.352c.41-.209.819-.42 1.23-.625.256-.126.517-.243.775-.364-.162 1.002.182 1.634 1.066 1.956-.231.165-.456.334-.696.482-.306.188-.629.35-.938.534-.072.055-.136.12-.191.192a3.133 3.133 0 0 1-.853-.96 3.097 3.097 0 0 1-.393-1.215z" fill="#fff"/>
</svg>
