<svg width="312" height="287" viewBox="0 0 312 287" fill="none" xmlns="http://www.w3.org/2000/svg">
<g filter="url(#filter0_di_5793_13133)">
<path d="M163.911 129.411C163.864 130.129 163.814 130.851 163.764 131.569L164.124 131.728C164.373 131.449 164.584 131.14 164.754 130.808C166.841 124.948 170.894 121.289 177.063 119.961C182.89 118.709 189.479 121.279 192.939 126.194C191.396 127.037 189.833 127.842 188.313 128.738C187.583 129.16 186.929 129.71 186.243 130.202L185.506 129.542C184.518 128.638 183.315 127.997 182.009 127.677C180.703 127.357 179.336 127.369 178.036 127.712C176.735 128.056 175.544 128.72 174.574 129.641C173.603 130.563 172.884 131.713 172.484 132.983C172.124 134.097 172.13 134.961 173.31 135.567C173.694 135.768 173.977 136.184 174.29 136.5C172.29 137.706 170.311 138.896 168.347 140.126C168.024 140.394 167.741 140.706 167.504 141.052C161.475 137.469 154.572 140.491 152.632 146.065C152.343 146.791 151.84 147.415 151.189 147.855C150.346 148.382 149.626 149.081 149.078 149.905C148.53 150.729 148.165 151.659 148.009 152.634C146.696 153.313 145.392 154.005 144.069 154.661C142.899 155.241 141.713 155.781 140.533 156.342C139.513 153.013 139.866 149.687 141.673 146.856C143.876 143.428 146.619 140.343 149.129 137.11C149.152 137.08 149.202 137.07 149.239 137.054C149.758 136.938 150.263 136.771 150.749 136.556C153.395 135.096 156.005 133.57 158.655 132.116C160.378 131.177 162.155 130.314 163.911 129.411Z" fill="white"/>
<path d="M140.522 156.352C141.702 155.792 142.889 155.252 144.059 154.672C145.392 154.012 146.685 153.323 147.998 152.645C147.935 156.748 151.152 159.236 154.815 159.111C159.291 158.953 163.774 159.111 168.254 159.111C168.026 159.424 167.757 159.705 167.454 159.948C163.987 161.972 160.501 163.963 157.038 165.996C156.704 166.191 156.515 166.623 156.255 166.942C153.921 167.084 151.588 167.035 149.378 166.148C148.442 165.772 148.008 166.108 147.429 166.807C143.555 171.478 139.602 176.085 135.716 180.742C133.383 183.534 130.533 183.409 128.347 180.802C125.087 176.913 121.764 173.073 118.471 169.213C118.877 169.032 119.294 168.884 119.687 168.66C121.63 167.611 123.567 166.55 125.507 165.495L131.893 172.997C132.057 172.904 132.21 172.794 132.35 172.667C135.473 168.828 138.606 164.994 141.682 161.132C141.922 160.825 141.856 160.143 141.726 159.711C141.386 158.561 140.929 157.463 140.522 156.352Z" fill="white"/>
<path d="M156.255 166.942C156.515 166.612 156.705 166.191 157.038 165.996C160.501 163.962 163.988 161.972 167.454 159.948C167.758 159.705 168.027 159.422 168.254 159.108C171.494 159.108 174.737 159.167 177.973 159.025C179.163 158.963 180.321 158.625 181.353 158.036C183.963 156.52 185.089 152.855 182.876 149.467C185.566 147.951 188.242 146.412 190.952 144.935C191.723 144.573 192.517 144.263 193.329 144.006C192.722 144.783 192.192 145.637 191.489 146.313C190.786 146.988 190.679 147.486 191.032 148.353C191.813 150.155 192.163 152.111 192.055 154.069C191.947 156.027 191.384 157.934 190.409 159.641C187.839 164.312 183.743 166.856 178.363 166.935C170.994 167.064 163.624 166.955 156.255 166.942Z" fill="white"/>
<path d="M193.328 144.016C192.516 144.273 191.722 144.584 190.951 144.946C188.242 146.422 185.565 147.961 182.875 149.477C182.178 148.684 181.302 148.064 180.318 147.669C179.333 147.273 178.268 147.112 177.209 147.2C176.423 147.249 175.629 147.2 174.843 147.2C173.103 147.226 171.94 146.425 170.95 145.008C169.96 143.591 168.656 142.371 167.493 141.053C167.73 140.707 168.013 140.396 168.336 140.127C170.3 138.891 172.293 137.701 174.279 136.501C174.916 137.161 175.639 137.731 176.166 138.453C176.639 139.112 177.166 139.224 177.926 139.333C179.812 139.548 181.675 139.931 183.492 140.476C185.658 141.188 185.825 141.261 186.988 139.237C187.31 138.662 187.56 138.051 187.735 137.418C188.492 134.781 187.795 132.391 186.232 130.203C186.918 129.712 187.565 129.161 188.302 128.739C189.822 127.856 191.385 127.039 192.928 126.195C196.888 131.231 197.064 139.181 193.328 144.016Z" fill="white"/>
<path d="M100.093 125.449C100.329 121.349 101.266 117.434 103.213 113.782C103.799 113.676 104.466 113.712 104.952 113.452C108.995 111.181 112.998 108.838 117.025 106.531C122.634 103.33 128.261 100.153 133.864 96.9426C134.224 96.735 134.46 96.3197 134.757 96C138.373 96.0692 141.73 97.1272 144.979 98.6137C145.313 98.7653 145.646 98.8905 145.979 99.0323C145.743 99.3421 145.576 99.764 145.263 99.9485C143.596 100.937 141.906 101.837 140.263 102.839C139.551 103.328 138.872 103.862 138.23 104.438C137.563 104.319 136.927 104.197 136.273 104.088C128.631 102.826 121.874 104.721 116.025 109.718C112.469 112.757 110.235 116.639 108.785 121.016C107.656 121.58 106.519 122.134 105.396 122.707C103.646 123.613 101.876 124.546 100.093 125.449Z" fill="white"/>
<path d="M134.755 96C134.459 96.3296 134.222 96.735 133.862 96.9426C128.259 100.153 122.633 103.33 117.023 106.531C112.997 108.838 108.994 111.168 104.951 113.452C104.464 113.726 103.798 113.689 103.211 113.782C105.454 108.696 109.094 104.767 113.59 101.567C117.223 98.9795 121.256 97.1437 125.653 96.4581C128.649 95.9967 131.729 96.1318 134.755 96Z" fill="white"/>
<path d="M125.506 165.498C123.566 166.553 121.63 167.614 119.687 168.663C119.293 168.873 118.877 169.035 118.47 169.216L110.704 158.109C111.141 157.882 111.584 157.667 112.017 157.43C113.874 156.408 115.73 155.377 117.584 154.352C120.223 158.067 122.864 161.783 125.506 165.498Z" fill="white"/>
<path d="M163.91 129.411C162.153 130.314 160.377 131.178 158.643 132.127C155.994 133.581 153.384 135.093 150.737 136.567C150.252 136.782 149.746 136.948 149.228 137.064C150.841 135.868 152.364 134.523 154.097 133.538C155.074 132.984 155.624 132.44 155.704 131.376C155.79 130.235 156.037 129.068 155.967 127.954C155.8 125.647 155.464 123.34 155.197 121.033C155.661 120.88 156.116 120.698 156.557 120.489C158.46 119.448 160.35 118.376 162.243 117.318C163.693 121.179 164.262 125.308 163.91 129.411Z" fill="white"/>
<path d="M138.256 104.442C138.898 103.866 139.577 103.332 140.289 102.844C141.932 101.855 143.622 100.945 145.289 99.9534C145.602 99.7688 145.769 99.3469 146.005 99.0371C149.874 100.796 153.292 103.395 156.005 106.641C154.748 107.475 153.481 108.289 152.235 109.149C151.305 109.785 150.405 110.467 149.488 111.127C146.372 108 142.509 105.701 138.256 104.442Z" fill="white"/>
<path d="M100.092 125.451C101.865 124.534 103.635 123.615 105.425 122.708C106.548 122.135 107.685 121.581 108.814 121.018C107.735 125.273 107.848 129.544 108.641 133.826C107.721 134.251 106.798 134.663 105.885 135.098C104.352 135.833 102.828 136.578 101.298 137.319C100.372 133.414 99.7585 129.491 100.092 125.451Z" fill="white"/>
<path d="M149.505 111.109C150.421 110.45 151.321 109.79 152.251 109.131C153.498 108.281 154.764 107.457 156.021 106.623C158.89 109.666 161.018 113.316 162.244 117.295C160.351 118.353 158.461 119.424 156.558 120.466C156.116 120.675 155.662 120.857 155.198 121.01C154.031 117.348 152.09 113.973 149.505 111.109Z" fill="white"/>
<path d="M117.583 154.352C115.73 155.377 113.874 156.408 112.017 157.43C111.584 157.668 111.141 157.882 110.704 158.109L105.234 147.981C105.888 147.492 106.568 147.039 107.271 146.623C108.857 145.782 110.484 145.014 112.094 144.217L117.583 154.352Z" fill="white"/>
<path d="M112.091 144.216C110.481 145.014 108.855 145.782 107.268 146.622C106.565 147.038 105.885 147.492 105.232 147.98C103.996 144.7 102.761 141.419 101.525 138.139C101.425 137.872 101.369 137.591 101.292 137.318C102.822 136.576 104.345 135.831 105.878 135.096C106.792 134.661 107.715 134.249 108.631 133.824L112.091 144.216Z" fill="white"/>
<path d="M168.976 118.573C168.026 117.986 166.78 117.601 166.187 116.764C165.086 115.174 164.19 113.454 163.52 111.645C162.82 109.799 163.873 107.874 165.677 107.077C167.48 106.279 169.573 106.777 170.616 108.458C171.519 109.888 172.3 111.391 172.949 112.95C173.986 115.505 171.933 118.303 169.17 118.27L168.976 118.573Z" fill="white"/>
<path d="M205.194 132.623C206.247 132.699 207.45 132.748 208.643 132.883C210.47 133.088 211.996 134.861 212 136.74C212 138.767 210.523 140.599 208.497 140.695C206.674 140.785 204.847 140.69 203.044 140.411C201.101 140.115 199.821 138.104 200.007 136.067C200.174 134.274 201.894 132.705 203.804 132.616C204.217 132.607 204.634 132.623 205.194 132.623Z" fill="white"/>
<path d="M204.704 154.134C204.504 155.812 203.774 157.002 202.371 157.72C201.037 158.409 199.567 158.475 198.371 157.522C196.906 156.371 195.544 155.096 194.301 153.712C193.101 152.361 193.371 150.219 194.668 148.861C196.058 147.404 198.141 147.045 199.741 148.238C201.159 149.315 202.472 150.522 203.66 151.843C204.197 152.433 204.367 153.36 204.704 154.134Z" fill="white"/>
<path d="M190.275 109.181C189.989 110.298 189.669 112.13 189.039 113.851C188.372 115.674 186.162 116.564 184.286 116.016C182.286 115.433 181.149 113.584 181.536 111.369C181.781 109.955 182.115 108.557 182.536 107.183C182.816 106.244 183.443 105.444 184.293 104.941C185.143 104.439 186.153 104.272 187.122 104.474C189.029 104.82 190.309 106.445 190.275 109.181Z" fill="white"/>
<path d="M202.417 114.701C204.17 114.803 205.463 115.66 206.113 117.239C206.763 118.818 206.503 120.285 205.24 121.399C203.942 122.547 202.552 123.588 201.084 124.513C199.507 125.502 197.244 124.991 196.127 123.597C194.908 122.081 194.828 119.797 196.214 118.521C197.641 117.279 199.157 116.142 200.75 115.116C201.187 114.817 201.847 114.83 202.417 114.701Z" fill="white"/>
<path d="M145.722 124.959C147.285 132.431 141.945 139.893 134.239 141.063C130.113 141.692 126.437 140.78 123.24 138.097C123.461 137.809 123.719 137.551 124.007 137.329C125.243 136.594 126.533 135.944 127.757 135.193C128.72 134.603 129.616 133.911 130.543 133.265C134.416 133.594 136.166 132.536 137.899 128.868C139.636 127.981 141.369 127.085 143.112 126.208C143.969 125.786 144.849 125.378 145.722 124.959Z" fill="white"/>
<path d="M118.247 129.408C117.481 125.714 118.517 122.398 120.617 119.405C122.249 117.072 124.583 115.306 127.287 114.359C129.992 113.413 132.93 113.333 135.683 114.132C137.446 114.659 139.016 115.826 140.682 116.699C138.349 118.018 135.996 119.336 133.683 120.697C133.403 120.862 133.246 121.228 133.016 121.501C129.81 121.211 127.653 122.675 126.28 125.457C125.247 125.941 124.203 126.409 123.18 126.913C121.524 127.731 119.887 128.575 118.247 129.408Z" fill="white"/>
<path d="M133.007 121.507C133.22 121.234 133.377 120.868 133.673 120.703C136.007 119.352 138.34 118.033 140.673 116.705C143.519 118.762 145.109 121.567 145.726 124.945C144.853 125.364 143.973 125.772 143.106 126.207C141.363 127.084 139.63 127.98 137.893 128.867C137.893 127.977 138.026 127.054 137.843 126.201C137.29 123.627 135.487 122.206 133.007 121.507Z" fill="white"/>
<path d="M118.247 129.406C119.887 128.572 121.523 127.729 123.17 126.908C124.193 126.404 125.237 125.936 126.27 125.451C125.62 129.459 126.996 131.987 130.533 133.276C129.606 133.935 128.71 134.614 127.746 135.204C126.523 135.955 125.233 136.605 123.997 137.34C123.709 137.562 123.451 137.82 123.23 138.108C121.838 137.075 120.677 135.769 119.819 134.272C118.962 132.774 118.427 131.118 118.247 129.406Z" fill="white"/>
</g>
<defs>
<filter id="filter0_di_5793_13133" x="0" y="0" width="312" height="286.797" filterUnits="userSpaceOnUse" color-interpolation-filters="sRGB">
<feFlood flood-opacity="0" result="BackgroundImageFix"/>
<feColorMatrix in="SourceAlpha" type="matrix" values="0 0 0 0 0 0 0 0 0 0 0 0 0 0 0 0 0 0 127 0" result="hardAlpha"/>
<feOffset dy="4"/>
<feGaussianBlur stdDeviation="50"/>
<feComposite in2="hardAlpha" operator="out"/>
<feColorMatrix type="matrix" values="0 0 0 0 0 0 0 0 0 0 0 0 0 0 0 0 0 0 0.2 0"/>
<feBlend mode="normal" in2="BackgroundImageFix" result="effect1_dropShadow_5793_13133"/>
<feBlend mode="normal" in="SourceGraphic" in2="effect1_dropShadow_5793_13133" result="shape"/>
<feColorMatrix in="SourceAlpha" type="matrix" values="0 0 0 0 0 0 0 0 0 0 0 0 0 0 0 0 0 0 127 0" result="hardAlpha"/>
<feOffset dx="-18" dy="11"/>
<feGaussianBlur stdDeviation="15"/>
<feComposite in2="hardAlpha" operator="arithmetic" k2="-1" k3="1"/>
<feColorMatrix type="matrix" values="0 0 0 0 1 0 0 0 0 1 0 0 0 0 1 0 0 0 1 0"/>
<feBlend mode="normal" in2="shape" result="effect2_innerShadow_5793_13133"/>
</filter>
</defs>
</svg>
